<svg xmlns="http://www.w3.org/2000/svg" xmlns:xlink="http://www.w3.org/1999/xlink" style="width:100%;height:100%" viewBox="0 0 1000 1000"><defs><path id="reuse-0" fill="none" stroke="#FB9039" stroke-width="2" d="M-38.166-102.283h80.053"/></defs><defs><clipPath id="a"><path d="M0 0h1000v1000H0z"/></clipPath></defs><g clip-path="url(#a)"><g display="block"><g opacity=".15"><g opacity="1"><path fill="#6088FF" d="m540.386 470.474-271.43-156.439v-9.23l271.43 156.44v9.229zm0 0-271.43-156.439v-9.23l271.43 156.44v9.229zM336.51 291.42l-83.885-48.444v-9.229l83.885 48.443v9.23zm0 0-83.885-48.444v-9.229l83.885 48.443v9.23zM830.794 510.1 559.363 353.663v-9.23l271.43 156.44v9.229zm0 0L559.363 353.663v-9.23l271.43 156.44v9.229zM495.803 297.052l-103.527-59.708v-9.229l103.527 59.707v9.23zm0 0-103.527-59.708v-9.229l103.527 59.707v9.23zM778.185 422.863l-339.343-195.92v-9.229l339.343 195.92v9.23zm0 0-339.343-195.92v-9.229l339.343 195.92v9.23zM738.343 279.536l-103.525-59.71v-9.228l103.525 59.707v9.23zm0 0-103.525-59.71v-9.228l103.525 59.707v9.23zM925.707 368.413l-290.89-167.812v-9.229l290.89 167.812v9.23zm0 0-290.89-167.812v-9.229l290.89 167.812v9.23z" opacity="1"/></g></g><path fill="#36E7F7" d="m619.383 685.745 10.026 200.944a4.78 4.78 0 0 0 2.206 3.794c3.169 2.021 7.322-.235 7.354-3.991l1.714-199.48a4.783 4.783 0 0 0-4.191-4.787l-11.74-1.464c-2.95-.37-5.517 2.014-5.37 4.984zm0 0 10.026 200.944a4.78 4.78 0 0 0 2.206 3.794c3.169 2.021 7.322-.235 7.354-3.991l1.714-199.48a4.783 4.783 0 0 0-4.191-4.787l-11.74-1.464c-2.95-.37-5.517 2.014-5.37 4.984z"/><path fill="#88F7FF" d="m638.895 682.24-4.27 206.326c0 4.11 8.932 3.169 12.256.752l.667-.487a5.029 5.029 0 0 0 2.065-3.812l10.154-199.976a5.025 5.025 0 0 0-3.868-5.147l-10.822-2.551c-3.157-.744-6.182 1.65-6.182 4.894zm0 0-4.27 206.326c0 4.11 8.932 3.169 12.256.752l.667-.487a5.029 5.029 0 0 0 2.065-3.812l10.154-199.976a5.025 5.025 0 0 0-3.868-5.147l-10.822-2.551c-3.157-.744-6.182 1.65-6.182 4.894z"/><path fill="#0B246E" d="m742.1 628.182 7.353 2.792v8.82H742.1v-11.612zm0 0 7.353 2.792v8.82H742.1v-11.612z"/><path fill="#0B246E" d="M528.323 739.986 200.51 549.716l189.286-100.144a42.165 42.165 0 0 1 40.882.803l314.57 182.584c5.767 3.348 5.601 11.73-.292 14.849l-175.75 92.98a42.165 42.165 0 0 1-40.882-.802zm0 0L200.51 549.716l189.286-100.144a42.165 42.165 0 0 1 40.882.803l314.57 182.584c5.767 3.348 5.601 11.73-.292 14.849l-175.75 92.98a42.165 42.165 0 0 1-40.882-.802z"/><path fill="#88F7FF" d="M528.303 730.13 200.49 539.86l189.286-100.143a42.165 42.165 0 0 1 40.882.803l314.57 182.582c5.767 3.348 5.603 11.73-.292 14.849l-175.75 92.983a42.165 42.165 0 0 1-40.882-.803zm0 0L200.49 539.86l189.286-100.143a42.165 42.165 0 0 1 40.882.803l314.57 182.582c5.767 3.348 5.603 11.73-.292 14.849l-175.75 92.983a42.165 42.165 0 0 1-40.882-.803z"/><path fill="#D7ECFA" d="m526.818 604.71-.013 4.216-56.17 32.642.014-4.217 56.17-32.642zm0 0-.013 4.216-56.17 32.642.014-4.217 56.17-32.642z"/><path fill="#D7ECFA" d="m470.649 637.351-.014 4.217L346.31 569.79l.014-4.217 124.325 71.778zm0 0-.014 4.217L346.31 569.79l.014-4.217 124.325 71.778z"/><path fill="#EEF8FC" d="m526.818 604.71-56.17 32.641-124.324-71.778 56.17-32.642 124.324 71.778zm0 0-56.17 32.641-124.324-71.778 56.17-32.642 124.324 71.778z"/><path fill="#D7ECFA" d="m410.086 541.146-.006 2.471-7.772 4.518.008-2.473 7.77-4.516zm0 0-.006 2.471-7.772 4.518.008-2.473 7.77-4.516zM402.316 545.662l-.008 2.473-7.667-4.428.006-2.471 7.669 4.426zm0 0-.008 2.473-7.667-4.428.006-2.471 7.669 4.426z"/><path fill="#FFF" d="m410.086 541.146-7.77 4.516-7.669-4.426 7.77-4.516 7.67 4.426zm0 0-7.77 4.516-7.669-4.426 7.77-4.516 7.67 4.426z"/><path fill="#D7ECFA" d="m419.923 546.826-.008 2.47-7.772 4.517.008-2.471 7.772-4.516zm0 0-.008 2.47-7.772 4.517.008-2.471 7.772-4.516zM412.151 551.342l-.008 2.47-7.667-4.425.008-2.472 7.667 4.427zm0 0-.008 2.47-7.667-4.425.008-2.472 7.667 4.427z"/><path fill="#FFF" d="m419.923 546.826-7.772 4.516-7.667-4.427 7.77-4.518 7.67 4.429zm0 0-7.772 4.516-7.667-4.427 7.77-4.518 7.67 4.429z"/><path fill="#D7ECFA" d="m429.738 552.493-.006 2.472-7.772 4.516.008-2.472 7.77-4.516zm0 0-.006 2.472-7.772 4.516.008-2.472 7.77-4.516z"/><path fill="#D7ECFA" d="m421.968 557.01-.008 2.47-7.667-4.426.006-2.47 7.669 4.425zm0 0-.008 2.47-7.667-4.426.006-2.47 7.669 4.425z"/><path fill="#FFF" d="m429.738 552.493-7.77 4.516-7.669-4.426 7.773-4.518 7.666 4.428zm0 0-7.77 4.516-7.669-4.426 7.773-4.518 7.666 4.428z"/><path fill="#D7ECFA" d="m439.555 558.16-.006 2.472-7.772 4.516.006-2.47 7.772-4.519zm0 0-.006 2.472-7.772 4.516.006-2.47 7.772-4.519z"/><path fill="#D7ECFA" d="m431.783 562.677-.006 2.471-7.667-4.426.006-2.473 7.667 4.428zm0 0-.006 2.471-7.667-4.426.006-2.473 7.667 4.428z"/><path fill="#FFF" d="m439.555 558.16-7.772 4.517-7.667-4.428 7.773-4.516 7.666 4.426zm0 0-7.772 4.517-7.667-4.428 7.773-4.516 7.666 4.426z"/><path fill="#D7ECFA" d="m449.39 563.84-.006 2.47-7.77 4.518.006-2.473 7.77-4.516zm0 0-.006 2.47-7.77 4.518.006-2.473 7.77-4.516zM441.62 568.355l-.006 2.473-7.669-4.428.008-2.471 7.667 4.426zm0 0-.006 2.473-7.669-4.428.008-2.471 7.667 4.426z"/><path fill="#FFF" d="m449.39 563.84-7.77 4.515-7.667-4.426 7.77-4.516 7.667 4.426zm0 0-7.77 4.515-7.667-4.426 7.77-4.516 7.667 4.426z"/><path fill="#D7ECFA" d="m459.21 569.507-.009 2.471-7.772 4.516.008-2.471 7.772-4.516zm0 0-.009 2.471-7.772 4.516.008-2.471 7.772-4.516z"/><path fill="#D7ECFA" d="m451.437 574.023-.008 2.471-7.667-4.426.008-2.471 7.667 4.426zm0 0-.008 2.471-7.667-4.426.008-2.471 7.667 4.426z"/><path fill="#FFF" d="m459.21 569.507-7.773 4.516-7.667-4.426 7.77-4.518 7.67 4.428zm0 0-7.773 4.516-7.667-4.426 7.77-4.518 7.67 4.428z"/><path fill="#D7ECFA" d="m469.024 575.175-.006 2.47-7.772 4.519.008-2.473 7.77-4.516zm0 0-.006 2.47-7.772 4.519.008-2.473 7.77-4.516z"/><path fill="#D7ECFA" d="m461.254 579.69-.008 2.474-7.667-4.428.006-2.472 7.67 4.427zm0 0-.008 2.474-7.667-4.428.006-2.472 7.67 4.427z"/><path fill="#FFF" d="m469.024 575.175-7.77 4.516-7.669-4.427 7.773-4.516 7.666 4.427zm0 0-7.77 4.516-7.669-4.427 7.773-4.516 7.666 4.427z"/><path fill="#D7ECFA" d="m478.861 580.852-.008 2.474-7.77 4.516.006-2.474 7.772-4.516zm0 0-.008 2.474-7.77 4.516.006-2.474 7.772-4.516z"/><path fill="#D7ECFA" d="m471.089 585.368-.006 2.474-7.687-4.439.006-2.47 7.687 4.435zm0 0-.006 2.474-7.687-4.439.006-2.47 7.687 4.435z"/><path fill="#FFF" d="m478.861 580.852-7.772 4.516-7.687-4.436 7.773-4.518 7.686 4.438zm0 0-7.772 4.516-7.687-4.436 7.773-4.518 7.686 4.438z"/><path fill="#D7ECFA" d="m488.678 586.52-.008 2.473-7.772 4.516.008-2.473 7.772-4.516zm0 0-.008 2.473-7.772 4.516.008-2.473 7.772-4.516z"/><path fill="#D7ECFA" d="m480.906 591.036-.008 2.473-7.667-4.426.008-2.473 7.667 4.426zm0 0-.008 2.473-7.667-4.426.008-2.473 7.667 4.426z"/><path fill="#FFF" d="m488.678 586.52-7.772 4.516-7.667-4.426 7.77-4.516 7.67 4.426zm0 0-7.772 4.516-7.667-4.426 7.77-4.516 7.67 4.426z"/><path fill="#D7ECFA" d="m498.493 592.188-.006 2.473-7.772 4.516.008-2.473 7.77-4.516zm0 0-.006 2.473-7.772 4.516.008-2.473 7.77-4.516z"/><path fill="#D7ECFA" d="m490.723 596.704-.008 2.473-7.667-4.428.006-2.471 7.67 4.426zm0 0-.008 2.473-7.667-4.428.006-2.471 7.67 4.426z"/><path fill="#FFF" d="m498.493 592.188-7.77 4.516-7.669-4.426 7.773-4.516 7.666 4.426zm0 0-7.77 4.516-7.669-4.426 7.773-4.516 7.666 4.426z"/><path fill="#D7ECFA" d="m518.147 603.536-.008 2.47-7.772 4.517.008-2.471 7.772-4.516zm0 0-.008 2.47-7.772 4.517.008-2.471 7.772-4.516z"/><path fill="#D7ECFA" d="m510.375 608.052-.008 2.47-17.502-10.103.006-2.473 17.504 10.106zm0 0-.008 2.47-17.502-10.103.006-2.473 17.504 10.106z"/><path fill="#FFF" d="m518.147 603.536-7.772 4.516-17.504-10.106 7.773-4.516 17.503 10.106zm0 0-7.772 4.516-17.504-10.106 7.773-4.516 17.503 10.106z"/><path fill="#D7ECFA" d="m410.017 552.583-.008 2.471-7.77 4.516.005-2.47 7.773-4.517zm0 0-.008 2.471-7.77 4.516.005-2.47 7.773-4.517z"/><path fill="#D7ECFA" d="m402.244 557.1-.006 2.47-17.503-10.106.006-2.47 17.503 10.105zm0 0-.006 2.47-17.503-10.106.006-2.47 17.503 10.105z"/><path fill="#FFF" d="m410.017 552.583-7.773 4.516-17.503-10.106 7.772-4.516 17.504 10.106zm0 0-7.773 4.516-17.503-10.106 7.772-4.516 17.504 10.106z"/><path fill="#D7ECFA" d="m419.832 558.249-.006 2.473-7.773 4.516.008-2.471 7.77-4.518zm0 0-.006 2.473-7.773 4.516.008-2.471 7.77-4.518z"/><path fill="#D7ECFA" d="m412.061 562.767-.008 2.471-7.666-4.426.008-2.473 7.666 4.428zm0 0-.008 2.471-7.666-4.426.008-2.473 7.666 4.428z"/><path fill="#FFF" d="m419.832 558.249-7.77 4.518-7.667-4.428 7.77-4.516 7.667 4.426zm0 0-7.77 4.518-7.667-4.428 7.77-4.516 7.667 4.426z"/><path fill="#D7ECFA" d="m429.649 563.917-.006 2.473-7.773 4.516.008-2.473 7.77-4.516zm0 0-.006 2.473-7.773 4.516.008-2.473 7.77-4.516zM421.878 568.433l-.008 2.473-7.666-4.426.006-2.474 7.668 4.427zm0 0-.008 2.473-7.666-4.426.006-2.474 7.668 4.427z"/><path fill="#FFF" d="m429.649 563.917-7.77 4.516-7.67-4.427 7.773-4.515 7.667 4.426zm0 0-7.77 4.516-7.67-4.427 7.773-4.515 7.667 4.426z"/><path fill="#D7ECFA" d="m439.486 569.597-.008 2.47-7.77 4.519.005-2.474 7.773-4.515zm0 0-.008 2.47-7.77 4.519.005-2.474 7.773-4.515zM431.713 574.112l-.006 2.474-7.668-4.429.008-2.47 7.666 4.425zm0 0-.006 2.474-7.668-4.429.008-2.47 7.666 4.425z"/><path fill="#FFF" d="m439.486 569.597-7.773 4.515-7.666-4.426 7.77-4.518 7.669 4.429zm0 0-7.773 4.515-7.666-4.426 7.77-4.518 7.669 4.429z"/><path fill="#D7ECFA" d="m449.3 575.264-.005 2.472-7.773 4.515.008-2.47 7.77-4.517zm0 0-.005 2.472-7.773 4.515.008-2.47 7.77-4.517zM441.53 579.78l-.008 2.471-7.666-4.426.006-2.47 7.668 4.425zm0 0-.008 2.471-7.666-4.426.006-2.47 7.668 4.425z"/><path fill="#FFF" d="m449.3 575.264-7.77 4.516-7.668-4.426 7.772-4.516 7.667 4.426zm0 0-7.77 4.516-7.668-4.426 7.772-4.516 7.667 4.426z"/><path fill="#D7ECFA" d="m459.118 580.932-.006 2.471-7.773 4.516.008-2.47 7.77-4.517zm0 0-.006 2.471-7.773 4.516.008-2.47 7.77-4.517zM451.347 585.448l-.008 2.471-7.666-4.426.006-2.471 7.668 4.426zm0 0-.008 2.471-7.666-4.426.006-2.471 7.668 4.426z"/><path fill="#FFF" d="m459.118 580.932-7.77 4.516-7.67-4.426 7.773-4.518 7.667 4.428zm0 0-7.77 4.516-7.67-4.426 7.773-4.518 7.667 4.428z"/><path fill="#D7ECFA" d="m468.955 586.61-.008 2.473-7.77 4.516.005-2.473 7.773-4.516zm0 0-.008 2.473-7.77 4.516.005-2.473 7.773-4.516zM461.182 591.126l-.006 2.473-7.686-4.438.006-2.473 7.686 4.438zm0 0-.006 2.473-7.686-4.438.006-2.473 7.686 4.438z"/><path fill="#FFF" d="m468.955 586.61-7.773 4.516-7.686-4.438 7.772-4.516 7.687 4.438zm0 0-7.773 4.516-7.686-4.438 7.772-4.516 7.687 4.438z"/><path fill="#D7ECFA" d="m478.772 592.278-.008 2.471-7.773 4.518.008-2.473 7.773-4.516zm0 0-.008 2.471-7.773 4.518.008-2.473 7.773-4.516z"/><path fill="#D7ECFA" d="m471 596.794-.009 2.473-7.666-4.428.008-2.472 7.666 4.427zm0 0-.009 2.473-7.666-4.428.008-2.472 7.666 4.427z"/><path fill="#FFF" d="m478.772 592.278-7.773 4.516-7.666-4.427 7.77-4.515 7.669 4.426zm0 0-7.773 4.516-7.666-4.427 7.77-4.515 7.669 4.426z"/><path fill="#D7ECFA" d="m488.587 597.946-.006 2.473-7.773 4.516.008-2.474 7.77-4.515zm0 0-.006 2.473-7.773 4.516.008-2.474 7.77-4.515z"/><path fill="#D7ECFA" d="m480.816 602.461-.008 2.474-7.666-4.429.006-2.47 7.668 4.425zm0 0-.008 2.474-7.666-4.429.006-2.47 7.668 4.425z"/><path fill="#FFF" d="m488.587 597.946-7.77 4.515-7.67-4.426 7.773-4.516 7.667 4.427zm0 0-7.77 4.515-7.67-4.426 7.773-4.516 7.667 4.427z"/><path fill="#D7ECFA" d="m498.424 603.623-.008 2.474-7.77 4.515.005-2.47 7.773-4.519zm0 0-.008 2.474-7.77 4.515.005-2.47 7.773-4.519zM490.651 608.141l-.006 2.471-7.686-4.438.006-2.47 7.686 4.437zm0 0-.006 2.471-7.686-4.438.006-2.47 7.686 4.437z"/><path fill="#FFF" d="m498.424 603.623-7.773 4.518-7.686-4.438 7.772-4.516 7.687 4.436zm0 0-7.773 4.518-7.686-4.438 7.772-4.516 7.687 4.436z"/><path fill="#D7ECFA" d="m508.24 609.291-.007 2.473-7.77 4.516.005-2.47 7.773-4.519zm0 0-.007 2.473-7.77 4.516.005-2.47 7.773-4.519zM500.468 613.81l-.006 2.47-7.668-4.426.008-2.473 7.666 4.428zm0 0-.006 2.47-7.668-4.426.008-2.473 7.666 4.428z"/><path fill="#FFF" d="m508.24 609.291-7.772 4.518-7.666-4.428 7.77-4.516 7.669 4.426zm0 0-7.772 4.518-7.666-4.428 7.77-4.516 7.669 4.426z"/><path fill="#D7ECFA" d="m400.108 558.339-.006 2.473-7.77 4.516.006-2.473 7.77-4.516zm0 0-.006 2.473-7.77 4.516.006-2.473 7.77-4.516z"/><path fill="#D7ECFA" d="m392.338 562.855-.006 2.473-17.504-10.106.006-2.471 17.504 10.104zm0 0-.006 2.473-17.504-10.106.006-2.471 17.504 10.104z"/><path fill="#FFF" d="m400.108 558.339-7.77 4.516-17.504-10.104 7.772-4.518 17.502 10.106zm0 0-7.77 4.516-17.504-10.104 7.772-4.518 17.502 10.106z"/><path fill="#D7ECFA" d="m409.925 564.006-.006 2.474-7.772 4.516.008-2.474 7.77-4.516zm0 0-.006 2.474-7.772 4.516.008-2.474 7.77-4.516zM402.155 568.522l-.008 2.474-7.667-4.427.006-2.473 7.669 4.426zm0 0-.008 2.474-7.667-4.427.006-2.473 7.669 4.426z"/><path fill="#FFF" d="m409.925 564.006-7.77 4.516-7.67-4.426 7.773-4.516 7.667 4.426zm0 0-7.77 4.516-7.67-4.426 7.773-4.516 7.667 4.426z"/><path fill="#D7ECFA" d="m419.742 569.674-.006 2.473-7.772 4.516.006-2.473 7.772-4.516zm0 0-.006 2.473-7.772 4.516.006-2.473 7.772-4.516z"/><path fill="#D7ECFA" d="m411.97 574.19-.006 2.473-7.667-4.428.006-2.471 7.667 4.426zm0 0-.006 2.473-7.667-4.428.006-2.471 7.667 4.426z"/><path fill="#FFF" d="m419.742 569.674-7.772 4.516-7.667-4.426 7.772-4.516 7.667 4.426zm0 0-7.772 4.516-7.667-4.426 7.772-4.516 7.667 4.426z"/><path fill="#D7ECFA" d="m429.579 575.354-.008 2.471-7.77 4.516.006-2.471 7.772-4.516zm0 0-.008 2.471-7.77 4.516.006-2.471 7.772-4.516z"/><path fill="#D7ECFA" d="m421.807 579.87-.006 2.471-7.67-4.426.009-2.473 7.667 4.428zm0 0-.006 2.471-7.67-4.426.009-2.473 7.667 4.428z"/><path fill="#FFF" d="m429.579 575.354-7.772 4.516-7.667-4.428 7.77-4.516 7.669 4.428zm0 0-7.772 4.516-7.667-4.428 7.77-4.516 7.669 4.428z"/><path fill="#D7ECFA" d="m439.394 581.022-.006 2.471-7.772 4.516.008-2.471 7.77-4.516zm0 0-.006 2.471-7.772 4.516.008-2.471 7.77-4.516z"/><path fill="#D7ECFA" d="m431.624 585.538-.008 2.471-7.667-4.426.008-2.473 7.667 4.428zm0 0-.008 2.471-7.667-4.426.008-2.473 7.667 4.428z"/><path fill="#FFF" d="m439.394 581.022-7.77 4.516-7.667-4.428 7.77-4.516 7.667 4.428zm0 0-7.77 4.516-7.667-4.428 7.77-4.516 7.667 4.428z"/><path fill="#D7ECFA" d="m449.211 586.688-.006 2.473-7.772 4.516.008-2.471 7.77-4.518zm0 0-.006 2.473-7.772 4.516.008-2.471 7.77-4.518zM441.44 591.206l-.007 2.47-7.667-4.425.006-2.474 7.669 4.429zm0 0-.007 2.47-7.667-4.425.006-2.474 7.669 4.429z"/><path fill="#FFF" d="m449.211 586.688-7.77 4.518-7.669-4.429 7.772-4.516 7.667 4.427zm0 0-7.77 4.518-7.669-4.429 7.772-4.516 7.667 4.427z"/><path fill="#D7ECFA" d="m459.048 592.367-.008 2.472-7.77 4.518.006-2.474 7.772-4.516zm0 0-.008 2.472-7.77 4.518.006-2.474 7.772-4.516z"/><path fill="#D7ECFA" d="m451.276 596.883-.006 2.474-7.687-4.439.006-2.473 7.687 4.438zm0 0-.006 2.474-7.687-4.439.006-2.473 7.687 4.438z"/><path fill="#FFF" d="m459.048 592.367-7.772 4.516-7.687-4.438 7.772-4.516 7.687 4.438zm0 0-7.772 4.516-7.687-4.438 7.772-4.516 7.687 4.438z"/><path fill="#D7ECFA" d="m468.865 598.035-.008 2.473-7.77 4.514.006-2.47 7.772-4.517zm0 0-.008 2.473-7.77 4.514.006-2.47 7.772-4.517z"/><path fill="#D7ECFA" d="m461.093 602.551-.006 2.471-7.669-4.426.008-2.471 7.667 4.426zm0 0-.006 2.471-7.669-4.426.008-2.471 7.667 4.426z"/><path fill="#FFF" d="m468.865 598.035-7.772 4.516-7.667-4.426 7.77-4.516 7.669 4.426zm0 0-7.772 4.516-7.667-4.426 7.77-4.516 7.669 4.426z"/><path fill="#D7ECFA" d="m478.68 603.703-.006 2.471-7.772 4.516.008-2.471 7.77-4.516zm0 0-.006 2.471-7.772 4.516.008-2.471 7.77-4.516z"/><path fill="#D7ECFA" d="m470.91 608.219-.008 2.471-7.667-4.426.006-2.471 7.669 4.426zm0 0-.008 2.471-7.667-4.426.006-2.471 7.669 4.426z"/><path fill="#FFF" d="m478.68 603.703-7.77 4.516-7.669-4.426 7.772-4.518 7.667 4.428zm0 0-7.77 4.516-7.669-4.426 7.772-4.518 7.667 4.428z"/><path fill="#D7ECFA" d="m498.334 615.049-.008 2.473-7.77 4.516.006-2.473 7.772-4.516zm0 0-.008 2.473-7.77 4.516.006-2.473 7.772-4.516z"/><path fill="#D7ECFA" d="m490.562 619.565-.006 2.473-17.504-10.106.006-2.471 17.504 10.104zm0 0-.006 2.473-17.504-10.106.006-2.471 17.504 10.104z"/><path fill="#FFF" d="m498.334 615.049-7.772 4.516-17.504-10.104 7.772-4.518 17.504 10.106zm0 0-7.772 4.516-17.504-10.104 7.772-4.518 17.504 10.106z"/><path fill="#D7ECFA" d="m400 569.776-.008 2.471-7.77 4.516.006-2.471 7.772-4.516zm0 0-.008 2.471-7.77 4.516.006-2.471 7.772-4.516z"/><path fill="#D7ECFA" d="m392.228 574.292-.006 2.471-27.32-15.774.005-2.471 27.321 15.774zm0 0-.006 2.471-27.32-15.774.005-2.471 27.321 15.774z"/><path fill="#FFF" d="m400 569.776-7.772 4.516-27.32-15.774 7.772-4.516L400 569.776zm0 0-7.772 4.516-27.32-15.774 7.772-4.516L400 569.776z"/><path fill="#D7ECFA" d="m409.815 575.442-.006 2.473-7.772 4.516.008-2.471 7.77-4.518zm0 0-.006 2.473-7.772 4.516.008-2.471 7.77-4.518z"/><path fill="#D7ECFA" d="m402.045 579.96-.008 2.47-7.667-4.425.008-2.472 7.667 4.427zm0 0-.008 2.47-7.667-4.425.008-2.472 7.667 4.427z"/><path fill="#FFF" d="m409.815 575.442-7.77 4.518-7.667-4.427 7.77-4.517 7.667 4.426zm0 0-7.77 4.518-7.667-4.427 7.77-4.517 7.667 4.426z"/><path fill="#D7ECFA" d="m419.652 581.122-.006 2.473-7.772 4.516.008-2.474 7.77-4.515zm0 0-.006 2.473-7.772 4.516.008-2.474 7.77-4.515z"/><path fill="#D7ECFA" d="m411.882 585.637-.008 2.474-7.667-4.429.006-2.47 7.669 4.425zm0 0-.008 2.474-7.667-4.429.006-2.47 7.669 4.425z"/><path fill="#FFF" d="m419.652 581.122-7.77 4.515-7.669-4.426 7.773-4.516 7.666 4.427zm0 0-7.77 4.515-7.669-4.426 7.773-4.516 7.666 4.427z"/><path fill="#D7ECFA" d="m429.47 586.79-.009 2.47-7.77 4.518.006-2.473 7.772-4.516zm0 0-.009 2.47-7.77 4.518.006-2.473 7.772-4.516zM421.697 591.305l-.006 2.473-7.669-4.428.008-2.471 7.667 4.426zm0 0-.006 2.473-7.669-4.428.008-2.471 7.667 4.426z"/><path fill="#FFF" d="m429.47 586.79-7.773 4.515-7.667-4.426 7.773-4.516 7.666 4.426zm0 0-7.773 4.515-7.667-4.426 7.773-4.516 7.666 4.426z"/><path fill="#D7ECFA" d="m439.286 592.457-.008 2.471-7.77 4.518.006-2.473 7.772-4.516zm0 0-.008 2.471-7.77 4.518.006-2.473 7.772-4.516zM431.514 596.973l-.006 2.473-7.669-4.428.008-2.471 7.667 4.426zm0 0-.006 2.473-7.669-4.428.008-2.471 7.667 4.426z"/><path fill="#FFF" d="m439.286 592.457-7.772 4.516-7.667-4.426 7.77-4.516 7.67 4.426zm0 0-7.772 4.516-7.667-4.426 7.77-4.516 7.67 4.426z"/><path fill="#D7ECFA" d="m449.121 598.137-.006 2.471-7.772 4.516.006-2.471 7.772-4.516zm0 0-.006 2.471-7.772 4.516.006-2.471 7.772-4.516z"/><path fill="#D7ECFA" d="m441.349 602.653-.006 2.471-7.687-4.438.008-2.471 7.685 4.438zm0 0-.006 2.471-7.687-4.438.008-2.471 7.685 4.438z"/><path fill="#FFF" d="m449.121 598.137-7.772 4.516-7.685-4.438 7.77-4.518 7.687 4.44zm0 0-7.772 4.516-7.685-4.438 7.77-4.518 7.687 4.44z"/><path fill="#D7ECFA" d="m458.938 603.803-.008 2.473-7.77 4.516.006-2.471 7.772-4.518zm0 0-.008 2.473-7.77 4.516.006-2.471 7.772-4.518z"/><path fill="#D7ECFA" d="m451.166 608.32-.006 2.472-7.669-4.426.008-2.474 7.667 4.429zm0 0-.006 2.472-7.669-4.426.008-2.474 7.667 4.429z"/><path fill="#FFF" d="m458.938 603.803-7.772 4.518-7.667-4.429 7.773-4.516 7.666 4.427zm0 0-7.772 4.518-7.667-4.429 7.773-4.516 7.666 4.427z"/><path fill="#D7ECFA" d="m468.755 609.47-.008 2.474-7.77 4.516.006-2.474 7.772-4.515zm0 0-.008 2.474-7.77 4.516.006-2.474 7.772-4.515z"/><path fill="#D7ECFA" d="m460.983 613.986-.006 2.474-7.669-4.429.008-2.47 7.667 4.425zm0 0-.006 2.474-7.669-4.429.008-2.47 7.667 4.425z"/><path fill="#FFF" d="m468.755 609.47-7.772 4.516-7.667-4.426 7.77-4.516 7.67 4.427zm0 0-7.772 4.516-7.667-4.426 7.77-4.516 7.67 4.427z"/><path fill="#D7ECFA" d="m488.407 620.818-.006 2.471-7.772 4.516.006-2.471 7.772-4.516zm0 0-.006 2.471-7.772 4.516.006-2.471 7.772-4.516z"/><path fill="#D7ECFA" d="m480.635 625.334-.006 2.471-17.504-10.104.008-2.473 17.502 10.106zm0 0-.006 2.471-17.504-10.104.008-2.473 17.502 10.106z"/><path fill="#FFF" d="m488.407 620.818-7.772 4.516-17.502-10.106 7.77-4.516 17.504 10.106zm0 0-7.772 4.516-17.502-10.106 7.77-4.516 17.504 10.106z"/><path fill="#D7ECFA" d="m370.44 564.186-.006 2.473-7.773 4.516.008-2.473 7.77-4.516zm0 0-.006 2.473-7.773 4.516.008-2.473 7.77-4.516z"/><path fill="#D7ECFA" d="m362.67 568.702-.009 2.473-7.666-4.428.008-2.471 7.666 4.426zm0 0-.009 2.473-7.666-4.428.008-2.471 7.666 4.426z"/><path fill="#FFF" d="m370.44 564.186-7.77 4.516-7.667-4.426 7.77-4.516 7.667 4.426zm0 0-7.77 4.516-7.667-4.426 7.77-4.516 7.667 4.426z"/><path fill="#D7ECFA" d="m380.277 569.864-.008 2.473-7.77 4.516.005-2.471 7.773-4.518zm0 0-.008 2.473-7.77 4.516.005-2.471 7.773-4.518zM372.504 574.382l-.006 2.47-7.668-4.426.008-2.473 7.666 4.429zm0 0-.006 2.47-7.668-4.426.008-2.473 7.666 4.429z"/><path fill="#FFF" d="m380.277 569.864-7.773 4.518-7.666-4.429 7.772-4.516 7.667 4.427zm0 0-7.773 4.518-7.666-4.429 7.772-4.516 7.667 4.427z"/><path fill="#D7ECFA" d="m390.094 575.533-.008 2.472-7.77 4.516.005-2.472 7.773-4.516zm0 0-.008 2.472-7.77 4.516.005-2.472 7.773-4.516z"/><path fill="#D7ECFA" d="m382.321 580.05-.006 2.47-7.668-4.426.008-2.473 7.666 4.428zm0 0-.006 2.47-7.668-4.426.008-2.473 7.666 4.428z"/><path fill="#FFF" d="m390.094 575.533-7.773 4.516-7.666-4.428 7.77-4.516 7.669 4.428zm0 0-7.773 4.516-7.666-4.428 7.77-4.516 7.669 4.428z"/><path fill="#D7ECFA" d="m439.215 603.892-.006 2.474-7.773 4.515.008-2.473 7.77-4.516zm0 0-.006 2.474-7.773 4.515.008-2.473 7.77-4.516z"/><path fill="#D7ECFA" d="m431.444 608.408-.008 2.473-46.972-27.119.006-2.473 46.974 27.12zm0 0-.008 2.473-46.972-27.119.006-2.473 46.974 27.12z"/><path fill="#FFF" d="m439.215 603.892-7.77 4.516-46.975-27.12 7.772-4.515 46.973 27.12zm0 0-7.77 4.516-46.975-27.12 7.772-4.515 46.973 27.12z"/><path fill="#D7ECFA" d="m449.032 609.56-.006 2.471-7.773 4.518.006-2.473 7.773-4.516zm0 0-.006 2.471-7.773 4.518.006-2.473 7.773-4.516z"/><path fill="#D7ECFA" d="m441.26 614.076-.007 2.473-7.668-4.426.008-2.473 7.666 4.426zm0 0-.007 2.473-7.668-4.426.008-2.473 7.666 4.426z"/><path fill="#FFF" d="m449.032 609.56-7.773 4.516-7.666-4.426 7.772-4.516 7.667 4.426zm0 0-7.773 4.516-7.666-4.426 7.772-4.516 7.667 4.426z"/><path fill="#D7ECFA" d="m458.849 615.228-.008 2.473-7.77 4.516.005-2.473 7.773-4.516zm0 0-.008 2.473-7.77 4.516.005-2.473 7.773-4.516z"/><path fill="#D7ECFA" d="m451.076 619.744-.006 2.473-7.668-4.426.008-2.473 7.666 4.426zm0 0-.006 2.473-7.668-4.426.008-2.473 7.666 4.426z"/><path fill="#FFF" d="m458.849 615.228-7.773 4.516-7.666-4.426 7.77-4.516 7.669 4.426zm0 0-7.773 4.516-7.666-4.426 7.77-4.516 7.669 4.426z"/><path fill="#D7ECFA" d="m478.5 626.576-.007 2.47-7.77 4.517.005-2.472 7.773-4.515zm0 0-.007 2.47-7.77 4.517.005-2.472 7.773-4.515zM470.728 631.091l-.006 2.472-17.503-10.106.008-2.472 17.501 10.106zm0 0-.006 2.472-17.503-10.106.008-2.472 17.501 10.106z"/><path fill="#FFF" d="m478.5 626.576-7.772 4.515-17.501-10.106 7.77-4.515 17.504 10.106zm0 0-7.772 4.515-17.501-10.106 7.77-4.515 17.504 10.106z"/><path fill="#FB9039" d="M593.71 671.402c-10.357 5.979-27.145 5.979-37.502 0-10.357-5.979-10.357-15.674 0-21.653 10.357-5.979 27.145-5.979 37.502 0 10.357 5.979 10.357 15.674 0 21.653zm0 0c-10.357 5.979-27.145 5.979-37.502 0-10.357-5.979-10.357-15.674 0-21.653 10.357-5.979 27.145-5.979 37.502 0 10.357 5.979 10.357 15.674 0 21.653z"/><path fill="#FB9039" d="M601.479 660.574H548.44v-44.338h53.038v44.338zm0 0H548.44v-44.338h53.038v44.338z"/><path fill="#FFF" d="M593.712 627.062c-10.357 5.979-27.147 5.979-37.504 0s-10.357-15.674 0-21.653c10.357-5.979 27.147-5.979 37.504 0s10.355 15.674 0 21.653zm0 0c-10.357 5.979-27.147 5.979-37.504 0s-10.357-15.674 0-21.653c10.357-5.979 27.147-5.979 37.504 0s10.355 15.674 0 21.653z"/><path fill="#EBEBEB" d="M595.13 619.53c-1.037 1.436-2.671 2.79-4.923 3.947-8.25 4.225-21.603 4.225-29.854 0-2.252-1.156-3.886-2.511-4.903-3.946-2.73-3.827-1.096-8.29 4.903-11.36 8.25-4.225 21.603-4.225 29.854 0 5.998 3.07 7.632 7.533 4.922 11.36zm0 0c-1.037 1.436-2.671 2.79-4.923 3.947-8.25 4.225-21.603 4.225-29.854 0-2.252-1.156-3.886-2.511-4.903-3.946-2.73-3.827-1.096-8.29 4.903-11.36 8.25-4.225 21.603-4.225 29.854 0 5.998 3.07 7.632 7.533 4.922 11.36z"/><path fill="#544438" d="M595.13 619.53c-1.037 1.436-2.671 2.79-4.923 3.947-8.25 4.225-21.603 4.225-29.854 0-2.252-1.156-3.886-2.511-4.903-3.946 1.017-1.435 2.651-2.79 4.903-3.946 8.25-4.225 21.603-4.225 29.854 0 2.252 1.156 3.886 2.51 4.922 3.946zm0 0c-1.037 1.436-2.671 2.79-4.923 3.947-8.25 4.225-21.603 4.225-29.854 0-2.252-1.156-3.886-2.511-4.903-3.946 1.017-1.435 2.651-2.79 4.903-3.946 8.25-4.225 21.603-4.225 29.854 0 2.252 1.156 3.886 2.51 4.922 3.946z"/><path fill="#FFF" d="m376.972 537.613-64.681-37.343 91.476-52.814 64.681 37.343-91.476 52.814zm0 0-64.681-37.343 91.476-52.814 64.681 37.343-91.476 52.814z"/><path fill="#4661AD" d="m378.272 524.964-58.406-33.72 82.602-47.69 58.405 33.72-82.601 47.69zm0 0-58.406-33.72 82.602-47.69 58.405 33.72-82.601 47.69z"/><path fill="#051622" d="m514.955 578.21-42.194-24.361c-2.716-1.569-2.716-5.487 0-7.055l48.043-27.737 54.157 31.266-48.302 27.887a11.705 11.705 0 0 1-11.704 0zm0 0-42.194-24.361c-2.716-1.569-2.716-5.487 0-7.055l48.043-27.737 54.157 31.266-48.302 27.887a11.705 11.705 0 0 1-11.704 0z"/><path fill="#051622" d="m446.265 328.868-6.172 4.173 6.001 152.672 195.84 119.776 5.606-3.763a3.15 3.15 0 0 0 1.393-2.615V447.605a4.81 4.81 0 0 0-2.405-4.167L448.029 328.806a1.662 1.662 0 0 0-1.764.062zm0 0-6.172 4.173 6.001 152.672 195.84 119.776 5.606-3.763a3.15 3.15 0 0 0 1.393-2.615V447.605a4.81 4.81 0 0 0-2.405-4.167L448.029 328.806a1.662 1.662 0 0 0-1.764.062z"/><path fill="#FB9039" d="M639.529 447.256a5.997 5.997 0 0 1 2.997 5.194v151.468c0 1.37-1.48 2.224-2.666 1.54L444.418 492.608a9.467 9.467 0 0 1-4.731-8.199V334.046a1.26 1.26 0 0 1 1.89-1.092m197.952 114.302a5.997 5.997 0 0 1 2.997 5.194v151.468c0 1.37-1.48 2.224-2.666 1.54L444.418 492.608a9.467 9.467 0 0 1-4.731-8.199V334.046a1.26 1.26 0 0 1 1.89-1.092"/><path fill="#FFF" d="M439.687 460.944v-121.44l202.58 117.001.26 121.565-202.84-117.126zm0 0v-121.44l202.58 117.001.26 121.565-202.84-117.126z"/><use xlink:href="#reuse-0" stroke-width="2" transform="matrix(1.9929 1.1506 0 1.9929 537.913 706.339)"/><use xlink:href="#reuse-0" stroke-width="2" transform="matrix(1.9929 1.1506 0 1.9929 537.913 696.374)"/><use xlink:href="#reuse-0" stroke-width="2" transform="matrix(1.9929 1.1506 0 1.9929 537.913 686.41)"/><use xlink:href="#reuse-0" stroke-width="2" transform="matrix(1.9929 1.1506 0 1.9929 537.913 676.445)"/><use xlink:href="#reuse-0" stroke-width="2" transform="matrix(1.9929 1.1506 0 1.9929 537.913 666.48)"/><path fill="none" stroke="#FB9039" stroke-width="2" d="M17.904-102.283h23.983" transform="matrix(1.9929 1.1506 0 1.9929 537.913 656.516)"/><path fill="none" stroke="#FB9039" stroke-width="2" d="M-38.166-102.283h52.468" transform="matrix(1.9929 1.1506 0 1.9929 537.913 646.552)"/><use xlink:href="#reuse-0" stroke-width="2" transform="matrix(1.9929 1.1506 0 1.9929 537.913 636.587)"/><use xlink:href="#reuse-0" stroke-width="2" transform="matrix(1.9929 1.1506 0 1.9929 537.913 626.623)"/><use xlink:href="#reuse-0" stroke-width="2" transform="matrix(1.9929 1.1506 0 1.9929 537.913 616.658)"/><path fill="#F3A15E" d="M629.333 371.526 474.16 283.221v-76.745l155.173 88.306v76.744zm0 0L474.16 283.221v-76.745l155.173 88.306v76.744z"/><path fill="#0B246E" d="M515.403 249.455v38.25l-4.912-2.836v-17.235l-17.279-9.974v17.232l-4.936-2.85v-38.25l4.936 2.85v16.889l17.279 9.976v-16.888l4.912 2.836zm0 0v38.25l-4.912-2.836v-17.235l-17.279-9.974v17.232l-4.936-2.85v-38.25l4.936 2.85v16.889l17.279 9.976v-16.888l4.912 2.836zM546.178 271.965l-10.519-6.074v33.508l-4.893-2.824v-33.508l-10.564-6.099v-4.743l25.976 14.999v4.74zm0 0-10.519-6.074v33.508l-4.893-2.824v-33.508l-10.564-6.099v-4.743l25.976 14.999v4.74zM585.784 290.09v38.25l-4.29-2.477V298.64c0-.409.01-.837.034-1.286.023-.448.051-.902.081-1.365l-11.026 16.996c-.385.647-.977.741-1.778.279l-.692-.4c-.799-.463-1.383-1.234-1.751-2.317l-11.236-29.927c.093 1.048.14 2.009.14 2.878v27.22l-4.315-2.488v-38.25l3.645 2.103c.43.249.763.492 1.002.727.24.235.466.636.682 1.204l11.072 29.301c.215.586.415 1.19.6 1.812a98.1 98.1 0 0 1 .53 1.85c.323-.862.702-1.657 1.132-2.384l10.863-16.607c.202-.329.419-.472.658-.433.24.04.574.184 1.004.433l3.645 2.104zm0 0v38.25l-4.29-2.477V298.64c0-.409.01-.837.034-1.286.023-.448.051-.902.081-1.365l-11.026 16.996c-.385.647-.977.741-1.778.279l-.692-.4c-.799-.463-1.383-1.234-1.751-2.317l-11.236-29.927c.093 1.048.14 2.009.14 2.878v27.22l-4.315-2.488v-38.25l3.645 2.103c.43.249.763.492 1.002.727.24.235.466.636.682 1.204l11.072 29.301c.215.586.415 1.19.6 1.812a98.1 98.1 0 0 1 .53 1.85c.323-.862.702-1.657 1.132-2.384l10.863-16.607c.202-.329.419-.472.658-.433.24.04.574.184 1.004.433l3.645 2.104zM612.936 339.25v4.766l-18.96-10.947v-38.251l4.912 2.837v33.483l14.048 8.111zm0 0v4.766l-18.96-10.947v-38.251l4.912 2.837v33.483l14.048 8.111z"/><path fill="#051622" d="m412.663 429.179-120.18-67.137v-76.747l120.18 67.14v76.744zm0 0-120.18-67.137v-76.747l120.18 67.14v76.744z"/><path fill="#36E7F7" d="M336.784 359.302c.277.16.514.42.715.785l1.939 3.571c-1.355 1.066-3.003 1.543-4.948 1.431-1.945-.111-4.287-.956-7.025-2.537a28.122 28.122 0 0 1-6.517-5.201 33.908 33.908 0 0 1-4.982-6.9 35.849 35.849 0 0 1-3.195-8.023 33.189 33.189 0 0 1-1.132-8.564c0-2.875.397-5.283 1.188-7.224.791-1.939 1.905-3.36 3.334-4.257 1.43-.897 3.139-1.25 5.132-1.058 1.993.191 4.195.983 6.61 2.378a27.38 27.38 0 0 1 6.274 4.954 36.815 36.815 0 0 1 4.775 6.3l-1.614 1.705a.667.667 0 0 1-.403.246c-.163.031-.373-.03-.634-.18-.293-.17-.638-.534-1.028-1.098a35.274 35.274 0 0 0-1.545-2.025c-.637-.785-1.427-1.62-2.365-2.499-.939-.879-2.107-1.722-3.506-2.529-1.646-.95-3.154-1.488-4.522-1.612-1.37-.126-2.548.153-3.541.833-.99.68-1.762 1.77-2.306 3.276-.546 1.505-.819 3.402-.819 5.694 0 2.326.283 4.558.853 6.698a26.796 26.796 0 0 0 2.352 5.967c1 1.837 2.178 3.476 3.531 4.914 1.353 1.44 2.814 2.611 4.383 3.518.952.55 1.811.976 2.572 1.283.762.307 1.46.512 2.099.614a5.76 5.76 0 0 0 1.81.02 6.014 6.014 0 0 0 1.683-.534.869.869 0 0 1 .831.054zm0 0c.277.16.514.42.715.785l1.939 3.571c-1.355 1.066-3.003 1.543-4.948 1.431-1.945-.111-4.287-.956-7.025-2.537a28.122 28.122 0 0 1-6.517-5.201 33.908 33.908 0 0 1-4.982-6.9 35.849 35.849 0 0 1-3.195-8.023 33.189 33.189 0 0 1-1.132-8.564c0-2.875.397-5.283 1.188-7.224.791-1.939 1.905-3.36 3.334-4.257 1.43-.897 3.139-1.25 5.132-1.058 1.993.191 4.195.983 6.61 2.378a27.38 27.38 0 0 1 6.274 4.954 36.815 36.815 0 0 1 4.775 6.3l-1.614 1.705a.667.667 0 0 1-.403.246c-.163.031-.373-.03-.634-.18-.293-.17-.638-.534-1.028-1.098a35.274 35.274 0 0 0-1.545-2.025c-.637-.785-1.427-1.62-2.365-2.499-.939-.879-2.107-1.722-3.506-2.529-1.646-.95-3.154-1.488-4.522-1.612-1.37-.126-2.548.153-3.541.833-.99.68-1.762 1.77-2.306 3.276-.546 1.505-.819 3.402-.819 5.694 0 2.326.283 4.558.853 6.698a26.796 26.796 0 0 0 2.352 5.967c1 1.837 2.178 3.476 3.531 4.914 1.353 1.44 2.814 2.611 4.383 3.518.952.55 1.811.976 2.572 1.283.762.307 1.46.512 2.099.614a5.76 5.76 0 0 0 1.81.02 6.014 6.014 0 0 0 1.683-.534.869.869 0 0 1 .831.054zM361.535 349.78c-.153.213-.315.342-.484.386-.17.044-.385-.01-.646-.161-.277-.16-.592-.488-.944-.985a44.087 44.087 0 0 0-1.328-1.751 22.204 22.204 0 0 0-1.903-2.085c-.737-.72-1.624-1.377-2.654-1.97-.969-.559-1.818-.906-2.547-1.033-.732-.13-1.343-.082-1.836.14-.492.22-.865.601-1.118 1.14-.255.535-.38 1.205-.38 2.004 0 1.03.227 2.013.68 2.95.454.936 1.051 1.859 1.789 2.764a29.451 29.451 0 0 0 2.513 2.702c.939.897 1.9 1.82 2.884 2.77a61.13 61.13 0 0 1 2.883 2.984 23.807 23.807 0 0 1 2.515 3.33 17.85 17.85 0 0 1 1.788 3.802c.454 1.353.68 2.822.68 4.402 0 1.688-.252 3.121-.75 4.307-.5 1.186-1.227 2.055-2.18 2.605-.953.552-2.124.74-3.517.566-1.393-.174-2.972-.771-4.74-1.792a23.378 23.378 0 0 1-3.093-2.144c-1-.817-1.945-1.7-2.835-2.65a31.93 31.93 0 0 1-2.504-3.016 30.056 30.056 0 0 1-2.088-3.27l1.407-1.906a.903.903 0 0 1 .496-.245c.191-.032.41.022.658.166.323.185.695.598 1.118 1.231a48.13 48.13 0 0 0 1.57 2.199c.622.829 1.367 1.69 2.236 2.582.87.893 1.927 1.698 3.173 2.418 1.014.586 1.923.954 2.722 1.106.8.151 1.473.095 2.02-.166.543-.263.964-.717 1.255-1.365.293-.647.438-1.47.438-2.465a7.404 7.404 0 0 0-.668-3.129 13.258 13.258 0 0 0-1.777-2.81 27.576 27.576 0 0 0-2.513-2.676 677.185 677.185 0 0 1-2.886-2.719 58.901 58.901 0 0 1-2.882-2.93 21.75 21.75 0 0 1-2.515-3.33 17.45 17.45 0 0 1-1.775-3.927c-.447-1.421-.67-2.984-.67-4.688 0-1.367.231-2.558.691-3.57.463-1.013 1.134-1.757 2.02-2.23.882-.475 1.97-.639 3.264-.487 1.291.151 2.77.707 4.43 1.666a24.122 24.122 0 0 1 5.132 3.988 27.593 27.593 0 0 1 4.071 5.295l-1.2 1.997zm0 0c-.153.213-.315.342-.484.386-.17.044-.385-.01-.646-.161-.277-.16-.592-.488-.944-.985a44.087 44.087 0 0 0-1.328-1.751 22.204 22.204 0 0 0-1.903-2.085c-.737-.72-1.624-1.377-2.654-1.97-.969-.559-1.818-.906-2.547-1.033-.732-.13-1.343-.082-1.836.14-.492.22-.865.601-1.118 1.14-.255.535-.38 1.205-.38 2.004 0 1.03.227 2.013.68 2.95.454.936 1.051 1.859 1.789 2.764a29.451 29.451 0 0 0 2.513 2.702c.939.897 1.9 1.82 2.884 2.77a61.13 61.13 0 0 1 2.883 2.984 23.807 23.807 0 0 1 2.515 3.33 17.85 17.85 0 0 1 1.788 3.802c.454 1.353.68 2.822.68 4.402 0 1.688-.252 3.121-.75 4.307-.5 1.186-1.227 2.055-2.18 2.605-.953.552-2.124.74-3.517.566-1.393-.174-2.972-.771-4.74-1.792a23.378 23.378 0 0 1-3.093-2.144c-1-.817-1.945-1.7-2.835-2.65a31.93 31.93 0 0 1-2.504-3.016 30.056 30.056 0 0 1-2.088-3.27l1.407-1.906a.903.903 0 0 1 .496-.245c.191-.032.41.022.658.166.323.185.695.598 1.118 1.231a48.13 48.13 0 0 0 1.57 2.199c.622.829 1.367 1.69 2.236 2.582.87.893 1.927 1.698 3.173 2.418 1.014.586 1.923.954 2.722 1.106.8.151 1.473.095 2.02-.166.543-.263.964-.717 1.255-1.365.293-.647.438-1.47.438-2.465a7.404 7.404 0 0 0-.668-3.129 13.258 13.258 0 0 0-1.777-2.81 27.576 27.576 0 0 0-2.513-2.676 677.185 677.185 0 0 1-2.886-2.719 58.901 58.901 0 0 1-2.882-2.93 21.75 21.75 0 0 1-2.515-3.33 17.45 17.45 0 0 1-1.775-3.927c-.447-1.421-.67-2.984-.67-4.688 0-1.367.231-2.558.691-3.57.463-1.013 1.134-1.757 2.02-2.23.882-.475 1.97-.639 3.264-.487 1.291.151 2.77.707 4.43 1.666a24.122 24.122 0 0 1 5.132 3.988 27.593 27.593 0 0 1 4.071 5.295l-1.2 1.997zM386.634 364.27c-.154.213-.315.343-.484.387-.17.044-.387-.01-.648-.162-.277-.16-.592-.488-.945-.984a44.097 44.097 0 0 0-1.327-1.752 22.168 22.168 0 0 0-1.901-2.085c-.738-.719-1.624-1.377-2.655-1.97-.968-.559-1.817-.905-2.547-1.033-.731-.13-1.343-.08-1.835.142-.492.22-.865.601-1.118 1.138-.255.538-.38 1.203-.38 2.002 0 1.03.226 2.015.679 2.952.454.937 1.05 1.86 1.787 2.764a29.48 29.48 0 0 0 2.515 2.702c.94.897 1.9 1.82 2.884 2.77.985.951 1.945 1.944 2.884 2.984a23.794 23.794 0 0 1 2.513 3.33 17.947 17.947 0 0 1 1.788 3.803c.454 1.353.681 2.821.681 4.402 0 1.686-.25 3.12-.75 4.307-.5 1.185-1.227 2.054-2.18 2.604-.952.552-2.126.74-3.519.566-1.39-.173-2.971-.771-4.739-1.791a23.36 23.36 0 0 1-3.091-2.145c-1-.817-1.947-1.7-2.838-2.65a31.929 31.929 0 0 1-2.503-3.016 30.25 30.25 0 0 1-2.088-3.27l1.408-1.905a.903.903 0 0 1 .497-.245c.191-.032.41.022.657.165.323.187.696.598 1.118 1.232.423.635.945 1.367 1.569 2.198.622.829 1.369 1.69 2.238 2.583.869.893 1.927 1.698 3.173 2.417 1.014.586 1.92.955 2.72 1.106.799.15 1.473.096 2.019-.165.544-.263.964-.718 1.257-1.365.291-.648.439-1.471.439-2.466 0-1.12-.224-2.162-.668-3.128a13.27 13.27 0 0 0-1.778-2.812 27.59 27.59 0 0 0-2.515-2.675c-.938-.879-1.899-1.786-2.883-2.718a58.929 58.929 0 0 1-2.884-2.93 21.737 21.737 0 0 1-2.513-3.33 17.455 17.455 0 0 1-1.778-3.928c-.446-1.42-.668-2.983-.668-4.687 0-1.367.232-2.557.692-3.57.462-1.012 1.134-1.757 2.019-2.232.883-.474 1.97-.637 3.264-.486 1.292.152 2.768.708 4.428 1.666a24.133 24.133 0 0 1 5.134 3.988 27.593 27.593 0 0 1 4.072 5.295l-1.2 1.997zm0 0c-.154.213-.315.343-.484.387-.17.044-.387-.01-.648-.162-.277-.16-.592-.488-.945-.984a44.097 44.097 0 0 0-1.327-1.752 22.168 22.168 0 0 0-1.901-2.085c-.738-.719-1.624-1.377-2.655-1.97-.968-.559-1.817-.905-2.547-1.033-.731-.13-1.343-.08-1.835.142-.492.22-.865.601-1.118 1.138-.255.538-.38 1.203-.38 2.002 0 1.03.226 2.015.679 2.952.454.937 1.05 1.86 1.787 2.764a29.48 29.48 0 0 0 2.515 2.702c.94.897 1.9 1.82 2.884 2.77.985.951 1.945 1.944 2.884 2.984a23.794 23.794 0 0 1 2.513 3.33 17.947 17.947 0 0 1 1.788 3.803c.454 1.353.681 2.821.681 4.402 0 1.686-.25 3.12-.75 4.307-.5 1.185-1.227 2.054-2.18 2.604-.952.552-2.126.74-3.519.566-1.39-.173-2.971-.771-4.739-1.791a23.36 23.36 0 0 1-3.091-2.145c-1-.817-1.947-1.7-2.838-2.65a31.929 31.929 0 0 1-2.503-3.016 30.25 30.25 0 0 1-2.088-3.27l1.408-1.905a.903.903 0 0 1 .497-.245c.191-.032.41.022.657.165.323.187.696.598 1.118 1.232.423.635.945 1.367 1.569 2.198.622.829 1.369 1.69 2.238 2.583.869.893 1.927 1.698 3.173 2.417 1.014.586 1.92.955 2.72 1.106.799.15 1.473.096 2.019-.165.544-.263.964-.718 1.257-1.365.291-.648.439-1.471.439-2.466 0-1.12-.224-2.162-.668-3.128a13.27 13.27 0 0 0-1.778-2.812 27.59 27.59 0 0 0-2.515-2.675c-.938-.879-1.899-1.786-2.883-2.718a58.929 58.929 0 0 1-2.884-2.93 21.737 21.737 0 0 1-2.513-3.33 17.455 17.455 0 0 1-1.778-3.928c-.446-1.42-.668-2.983-.668-4.687 0-1.367.232-2.557.692-3.57.462-1.012 1.134-1.757 2.019-2.232.883-.474 1.97-.637 3.264-.486 1.292.152 2.768.708 4.428 1.666a24.133 24.133 0 0 1 5.134 3.988 27.593 27.593 0 0 1 4.072 5.295l-1.2 1.997z"/><path fill="#051622" d="m863.579 355.461-82.604-46.237v-76.746l82.604 46.239v76.744zm0 0-82.604-46.237v-76.746l82.604 46.239v76.744z"/><path fill="#FFF" d="M814.19 295.059c0 2.13-.228 3.916-.69 5.355-.461 1.438-1.137 2.493-2.02 3.162-.884.67-1.985.94-3.3.811-1.313-.127-2.824-.683-4.532-1.67-1.538-.886-3.12-2.05-4.75-3.49l.276-3.196c.03-.303.136-.504.311-.606.177-.101.44-.051.795.154.261.15.62.432 1.072.845.453.412 1.05.83 1.788 1.257.985.568 1.86.905 2.62 1.007.76.101 1.404-.056 1.926-.473.522-.418.919-1.108 1.188-2.07.269-.965.404-2.226.404-3.789v-25.064l4.913 2.835v24.932zm0 0c0 2.13-.228 3.916-.69 5.355-.461 1.438-1.137 2.493-2.02 3.162-.884.67-1.985.94-3.3.811-1.313-.127-2.824-.683-4.532-1.67-1.538-.886-3.12-2.05-4.75-3.49l.276-3.196c.03-.303.136-.504.311-.606.177-.101.44-.051.795.154.261.15.62.432 1.072.845.453.412 1.05.83 1.788 1.257.985.568 1.86.905 2.62 1.007.76.101 1.404-.056 1.926-.473.522-.418.919-1.108 1.188-2.07.269-.965.404-2.226.404-3.789v-25.064l4.913 2.835v24.932zM839.174 290.784c-.154.213-.315.343-.485.386-.169.044-.384-.007-.645-.159-.277-.16-.592-.488-.945-.984a44.116 44.116 0 0 0-1.327-1.752 22.208 22.208 0 0 0-1.903-2.085c-.738-.72-1.625-1.379-2.655-1.973-.969-.558-1.817-.903-2.547-1.03-.731-.13-1.343-.082-1.835.14-.493.22-.865.6-1.118 1.137-.255.536-.381 1.206-.381 2.005 0 1.03.225 2.013.68 2.95.454.936 1.052 1.86 1.79 2.764a29.454 29.454 0 0 0 2.512 2.702c.939.897 1.9 1.822 2.884 2.772.984.951 1.945 1.945 2.884 2.984a23.774 23.774 0 0 1 2.513 3.328 17.856 17.856 0 0 1 1.79 3.802c.452 1.356.679 2.822.679 4.403 0 1.686-.251 3.123-.75 4.308-.5 1.186-1.227 2.053-2.18 2.603-.952.552-2.124.74-3.517.566-1.393-.173-2.971-.771-4.74-1.792a23.379 23.379 0 0 1-3.092-2.144c-1-.817-1.945-1.698-2.836-2.649a31.954 31.954 0 0 1-2.503-3.017 30.253 30.253 0 0 1-2.089-3.27l1.407-1.903a.906.906 0 0 1 .497-.247c.19-.032.41.021.657.165.323.187.696.6 1.118 1.234.423.635.947 1.367 1.57 2.198.622.829 1.368 1.69 2.237 2.583.869.892 1.927 1.697 3.172 2.417 1.015.586 1.923.955 2.723 1.106.799.15 1.472.094 2.018-.167.544-.263.963-.718 1.256-1.366.29-.647.438-1.468.438-2.463a7.413 7.413 0 0 0-.667-3.13 13.258 13.258 0 0 0-1.778-2.81 27.574 27.574 0 0 0-2.513-2.677 677.22 677.22 0 0 1-2.886-2.718 58.902 58.902 0 0 1-2.881-2.93 21.733 21.733 0 0 1-2.515-3.328c-.738-1.2-1.33-2.51-1.776-3.93-.447-1.421-.67-2.983-.67-4.687 0-1.368.231-2.557.692-3.57.462-1.012 1.134-1.757 2.019-2.232.882-.474 1.97-.635 3.264-.484 1.291.151 2.77.705 4.43 1.664a24.122 24.122 0 0 1 5.132 3.988 27.592 27.592 0 0 1 4.071 5.295l-1.2 1.997zm0 0c-.154.213-.315.343-.485.386-.169.044-.384-.007-.645-.159-.277-.16-.592-.488-.945-.984a44.116 44.116 0 0 0-1.327-1.752 22.208 22.208 0 0 0-1.903-2.085c-.738-.72-1.625-1.379-2.655-1.973-.969-.558-1.817-.903-2.547-1.03-.731-.13-1.343-.082-1.835.14-.493.22-.865.6-1.118 1.137-.255.536-.381 1.206-.381 2.005 0 1.03.225 2.013.68 2.95.454.936 1.052 1.86 1.79 2.764a29.454 29.454 0 0 0 2.512 2.702c.939.897 1.9 1.822 2.884 2.772.984.951 1.945 1.945 2.884 2.984a23.774 23.774 0 0 1 2.513 3.328 17.856 17.856 0 0 1 1.79 3.802c.452 1.356.679 2.822.679 4.403 0 1.686-.251 3.123-.75 4.308-.5 1.186-1.227 2.053-2.18 2.603-.952.552-2.124.74-3.517.566-1.393-.173-2.971-.771-4.74-1.792a23.379 23.379 0 0 1-3.092-2.144c-1-.817-1.945-1.698-2.836-2.649a31.954 31.954 0 0 1-2.503-3.017 30.253 30.253 0 0 1-2.089-3.27l1.407-1.903a.906.906 0 0 1 .497-.247c.19-.032.41.021.657.165.323.187.696.6 1.118 1.234.423.635.947 1.367 1.57 2.198.622.829 1.368 1.69 2.237 2.583.869.892 1.927 1.697 3.172 2.417 1.015.586 1.923.955 2.723 1.106.799.15 1.472.094 2.018-.167.544-.263.963-.718 1.256-1.366.29-.647.438-1.468.438-2.463a7.413 7.413 0 0 0-.667-3.13 13.258 13.258 0 0 0-1.778-2.81 27.574 27.574 0 0 0-2.513-2.677 677.22 677.22 0 0 1-2.886-2.718 58.902 58.902 0 0 1-2.881-2.93 21.733 21.733 0 0 1-2.515-3.328c-.738-1.2-1.33-2.51-1.776-3.93-.447-1.421-.67-2.983-.67-4.687 0-1.368.231-2.557.692-3.57.462-1.012 1.134-1.757 2.019-2.232.882-.474 1.97-.635 3.264-.484 1.291.151 2.77.705 4.43 1.664a24.122 24.122 0 0 1 5.132 3.988 27.592 27.592 0 0 1 4.071 5.295l-1.2 1.997z"/></g><g display="block"><path fill="#051622" d="M214.05 954.025c0 4.717-3.31 10.453-7.395 12.812-4.085 2.36-7.398.447-7.398-4.27 0-4.718 3.313-10.453 7.398-12.813 4.086-2.36 7.396-.446 7.396 4.271z"/><path fill="#051622" d="M207.976 950.244c1.445 4.49.048 10.965-3.119 14.461-3.166 3.496-6.905 2.69-8.35-1.8-1.445-4.49-.048-10.967 3.12-14.462 3.166-3.496 6.905-2.689 8.35 1.801zM343.346 822.157s.767 24.9 4.215 33.71c3.448 8.81 11.874 8.047 18.387 7.28 6.512-.766 22.984-12.593 31.03-20.28 8.044-7.687 24.9-6.214 38.309-25.146 13.408-18.933 0-26.978-4.215-27.36-4.213-.384-26.35 17.32-43.8 10.332l-43.926 21.464z"/><path fill="#425CA3" d="M176.696 696.626s142.514-46.909 169.592-27.54c25.335 18.124 21.22 72.621 40.984 131.607a6.446 6.446 0 0 1-.198 4.65c-3.043 6.91-14.2 25.712-44.089 20.822 0 0-16.57-43.149-27.83-88.19 0 0-111.015 71.537-136.319 52.99-25.304-18.545-2.14-94.339-2.14-94.339z"/><path fill="#051622" d="m118.51 900.434 93.67-16.5-8.516 69.722 8.515 2.129 16.5-71.85 87.283 35.926 4.79-5.144-83.026-39.296 62.803-28.742-6.92-3.192-69.598 23.757-36.846-23.757-9.413 2.128 33.363 27.676-90.477 20.226-2.129 6.917z"/><path fill="#051622" d="M130.373 890.862c0 4.717-3.312 10.453-7.398 12.812-4.085 2.36-7.397.447-7.397-4.27 0-4.718 3.312-10.451 7.397-12.81 4.086-2.36 7.398-.45 7.398 4.268z"/><path fill="#051622" d="M133.707 892.787c0 4.717-3.312 10.453-7.398 12.813-4.085 2.36-7.395.446-7.395-4.271s3.31-10.451 7.395-12.81c4.086-2.36 7.398-.449 7.398 4.268zM324.007 912.314c0 4.717-3.31 10.45-7.396 12.81-4.085 2.36-7.397.446-7.397-4.27 0-4.718 3.312-10.452 7.397-12.811 4.086-2.36 7.396-.447 7.396 4.27z"/><path fill="#051622" d="M319.886 909.593c0 4.717-3.31 10.453-7.396 12.813-4.085 2.36-7.398.446-7.398-4.271s3.313-10.45 7.398-12.81c4.085-2.36 7.396-.449 7.396 4.268zM231.092 835.547h-16.81v41.12h16.81v-41.12zM412.699 843.467s.765 24.901 4.213 33.712c3.448 8.81 11.876 8.043 18.389 7.278 6.512-.767 22.984-12.591 31.029-20.278 8.045-7.687 24.9-6.214 38.308-25.146 13.408-18.933 0-26.978-4.213-27.36-4.213-.383-25.245 15.506-42.694 8.519l-45.032 23.275z"/><path fill="#4661AD" d="M246.41 713.928S388.921 667.02 416 686.388c25.648 18.347 21.114 73.979 41.73 133.804 0 0-8.599 29.236-45.031 23.275 0 0-16.57-43.148-27.83-88.19 0 0-111.015 71.537-136.32 52.991-25.303-18.546-2.14-94.34-2.14-94.34z"/><path fill="#FB9039" d="M362.966 774.841c-5.018 27.142-51.26 60.3-131.683 72.359-2.806.432-29.536 5.69-53.077 1.078 14.786-28.355 53.807-75.406 41.584-121.756 28.814 4.478 147.575 24.47 143.176 48.32z"/><path fill="#4661AD" d="m219.63 732.602 17.09 17.575c4.026 24.246 18.667 47.896 41.022 49.68l114.482-39.125v-39.803l-172.593 11.673z"/><path fill="#051622" d="m258.28 554.817-59.361-30.063c-6.109-3.093-12.859-4.783-19.706-4.695-12.533.161-30.735 4.347-37.861 25.73-11.338 34.013 25.375 172.225 25.375 172.225s36.879 45.62 66.033 43.459c29.154-2.16 71.099-26.723 71.099-47.238 0-14.636-11.344-83.52-17.847-121.802a51.9 51.9 0 0 0-27.733-37.616z"/><path fill="none" stroke="#0B246E" stroke-miterlimit="10" stroke-width="1.494675" d="M286.174 467.486c.323 0 7.599 1.738 11.447 2.663a2 2 0 0 1 1.355 2.768l-2.469 5.536a5.25 5.25 0 0 1-4.795 3.111h-8.62"/><path fill="#FF8B91" d="m208.89 519.78 6.115-39.758 77.072-44.653v30.12c0 1.722-.32 3.428-.94 5.033l-1.486 3.838a12.473 12.473 0 0 0-.661 6.612l.574 3.348a13.756 13.756 0 0 1-.881 7.661l-6.937 16.477a12.783 12.783 0 0 1-13.299 7.733l-10.93-1.304-4.587 24.467-44.04-19.574z"/><path fill="#0B246E" d="m213.154 501.565 13.526 2.744a22.388 22.388 0 0 0 19.293-5.18l18.289-16.192v4.425l2.933-.558a7.2 7.2 0 0 0 5.547-4.985l7.062-23.307s19.704-1.666 25.534-25.812c0 0-21.65-21.37-52.735-19.15-31.085 2.22-42.462 28.033-42.462 28.033s-6.663-.833-9.716 7.493c-2.467 6.728 4.58 36.287 7.376 47.39a6.93 6.93 0 0 0 5.353 5.099z"/><path fill="#FF8B91" d="m263.26 492.972 2.45-12.687s-2.558-6.184-8.529-3.733c-5.97 2.451-3.412 18.018 0 18.444 3.412.427 6.078-2.024 6.078-2.024z"/><path fill="#36E7F7" d="m265.71 480.285 32.08-1.907 2.023-5.088-36.452 3.948 2.35 3.047z"/><path fill="#FB9039" d="M241.95 781.655c4.412 45.329-41.519 79.736-83.366 61.764-39.009-16.754-67.607-53.95-76.089-118.21-9.47-71.548 3.319-116.819 12.707-138.834 4.586-10.684 15.836-16.916 27.329-15.324 89.84 12.518 112.286 160.12 112.286 160.12s4.506 23.488 7.132 50.484z"/><path fill="#FF8B91" d="M415.364 604.855s10.771-21.484 14.213-23.41c8.661-4.851 7.463-.013 14.403-1.527 5.105-1.114 8.844-3.159 12.856-4.243 1.375-.37 3.2.058 4.783 1.265 1.243.949 2.337 2.376 2.945 4.271 9.484.538 7.342 6.136 7.342 6.136 9.265-.958 8.637 16.177 3.518 13.512-1.198-9.685-7.093-1.168-11.149 3.996-4.047 5.152-14.63 9.616-17.139 9.616-2.509 0-20.066 3.344-20.066 3.344l-11.706-12.96z"/><path fill="#051622" d="M267.965 561.179s-26.592-7.663-39.454 13.432c-14.261 23.388 4.25 42.393 4.25 42.393l96.432 54.505a33.823 33.823 0 0 0 35.308-1.24l73.289-53.989s-3.562-18.334-17.753-22.502c-2.948-.865-65.983 22.016-65.983 22.016a12.965 12.965 0 0 1-12.868-1.371l-73.221-53.244z"/><path fill="#FF8B91" d="M330.448 584.6s10.87-21.32 14.213-23.411c3.345-2.091 30.934-2.926 33.443-3.345 2.51-.418 7.525 5.017 7.525 5.017s8.715.33 10.387.749c1.673.418 10.61 5.165 7.74 7.599-1.795 1.524-6.273-1.116-12.048-.947-5.614.166-14.524 3.121-16.665 5.682-8.58 10.27 17.516 2.27 17.566 5.905.105 7.617-27.881 12.364-30.39 12.364-2.51 0-20.067 3.344-20.067 3.344l-11.704-12.958z"/><path fill="#051622" d="m262.171 592.485 70.874-16.406c14.534 0 16.672 20.764 16.672 20.764l-48.871 34.64-38.675-38.998zM303.859 840c0 4.716-3.31 10.45-7.396 12.81-4.085 2.36-7.397.448-7.397-4.27 0-4.716 3.312-10.452 7.397-12.812 4.086-2.36 7.396-.446 7.396 4.271z"/><path fill="#051622" d="M300.459 838.036c0 4.717-3.312 10.451-7.398 12.81-4.085 2.36-7.395.447-7.395-4.27s3.31-10.451 7.395-12.81c4.086-2.36 7.398-.447 7.398 4.27z"/><path fill="none" stroke="#FFF" stroke-linecap="round" stroke-miterlimit="10" stroke-width="7.9716" d="M362.966 774.841c-87.496 49.705-113.611 13.48-120.722-3.928-1.891-4.627-2.437-7.927-2.437-7.927s-17.76-92.086-41.542-134.565c-20.059-35.83-46.81-59.661-88.499-60.921"/><path fill="#4661AD" d="m209.577 513.36-10.658 11.394 59.36 30.063-4.145-21.886-44.557-19.57z"/></g><g display="block"><path fill="#E23237" d="m99.249 120.527 4.286 38.109 23.757 20.772 24.136-5.386 4.663-35.202-28.799-19.07-28.043.777z"/><path fill="#B52E31" d="m127.293 179.408 24.135-5.364 4.663-35.225-28.798-19.069v59.658z"/><path fill="#FFF" d="m122.187 149.601 5.195-10.528 5.906 14.134-11.101-3.606zm-12.323 9.927 6.528 2.011 3.508-7.541 15.675 5.095 3.841 10.037 6.24 2.138-18.319-44.538-17.473 32.798z"/></g><g display="block"><path fill="#41B883" d="m776.528 601.4 39.661-59.049-30.54-9.922-9.12 13.717-9.321-19.709-30.341-9.858 39.661 84.82z"/><path fill="#41B883" d="m776.528 601.4 39.661-59.049-15.865-5.154-23.796 35.43-23.994-50.958-15.667-5.09 39.661 84.82z"/><path fill="#35495E" d="m776.53 572.835 23.794-35.638-14.673-4.768-9.122 13.717-9.32-19.709-2.292-.744-12.383-4.024 23.995 51.166z"/></g><g display="block"><path fill="#00D8FF" d="M357.763 159.839c3.108 1.01 5.627-.821 5.627-4.089 0-3.268-2.519-6.735-5.627-7.745-3.108-1.01-5.627.821-5.627 4.088 0 3.268 2.519 6.736 5.627 7.746z"/><path fill="#00D8FF" d="M357.763 167.49c-6.764-2.026-13.51-5.178-19.987-9.336-2.993-1.97-5.785-4.447-8.233-7.308a13.076 13.076 0 0 1-2.28-3.408c-.569-1.236-.915-2.517-1.013-3.754 0-3.912 4.087-6.419 10.935-6.703 6.651-.062 13.6 1.119 20.578 3.496 6.885 2.136 13.741 5.422 20.308 9.733 2.882 1.902 5.578 4.273 7.964 7.004a12.54 12.54 0 0 1 2.245 3.297c.56 1.201.901 2.448.998 3.651 0 4.067-4.57 6.702-11.931 6.871-6.352-.078-12.957-1.272-19.584-3.543zm0-24.183c-6.676-2.263-13.324-3.398-19.694-3.364-6.302.265-9.127 2.508-9.127 4.607 0 2.197 3.036 6.638 9.704 11.201 6.197 3.969 12.649 6.974 19.117 8.907 6.34 2.179 12.659 3.331 18.739 3.414 6.922-.163 10.074-2.595 10.074-4.787a7.626 7.626 0 0 0-.765-2.361 8.637 8.637 0 0 0-1.509-2.101c-2.135-2.428-4.542-4.537-7.114-6.227-6.283-4.116-12.841-7.251-19.425-9.289z"/><path fill="#00D8FF" d="M344.977 179.279c-1.05-.315-2.088-.921-3.007-1.753-3.224-3.002-4.34-9.003-2.987-16.054 1.491-6.685 4.076-12.713 7.653-17.851 3.356-5.232 7.651-9.552 12.725-12.798 2.235-1.416 4.814-2.288 7.617-2.574 1.014-.17 2.12-.069 3.239.294 1.12.364 2.226.982 3.239 1.811 3.352 3.12 4.462 9.701 2.897 17.176-1.537 6.28-4.055 11.954-7.464 16.824-3.237 5.194-7.398 9.509-12.326 12.782-2.317 1.474-5.006 2.357-7.93 2.604-1.171.077-2.407-.079-3.656-.461zm3.991-33.495c-3.412 4.925-5.889 10.687-7.338 17.068-1.245 6.495-.05 11.033 1.688 12.653 1.801 1.681 6.172 2.062 11.48-1.089 4.705-3.141 8.676-7.275 11.766-12.248 3.266-4.653 5.681-10.075 7.16-16.077 1.472-7.037.2-12.051-1.605-13.731a6.638 6.638 0 0 0-2.123-1.048c-.724-.199-1.433-.236-2.082-.107-2.494.271-4.788 1.063-6.775 2.338-4.847 3.113-8.951 7.252-12.155 12.26l-.016-.019z"/><path fill="#00D8FF" d="M370.542 187.617c-3.05-.991-6.924-4.189-10.957-9.147-5.163-6.617-9.531-13.82-12.937-21.332-3.532-7.362-6.096-14.964-7.594-22.517-.65-3.32-.771-6.566-.356-9.584.096-1.138.434-2.161.992-2.996a4.913 4.913 0 0 1 2.236-1.841c3.347-.95 9.026 2.989 14.822 10.283 4.819 6.352 8.911 13.216 12.133 20.354 3.53 7.216 6.121 14.679 7.676 22.108.678 3.444.782 6.805.308 9.913-.113 1.167-.472 2.214-1.052 3.069a5.125 5.125 0 0 1-2.311 1.886c-.904.233-1.926.165-2.96-.196zm-21.564-31.147c3.267 7.183 7.44 14.075 12.362 20.416 5.063 6.225 9.078 8.513 10.805 8.007 1.801-.516 3.129-4.576 1.76-12.289-1.499-7.098-3.984-14.225-7.363-21.117-3.075-6.828-6.981-13.397-11.581-19.478-5.456-6.866-9.882-9.442-11.685-8.929a3.397 3.397 0 0 0-1.354 1.313c-.331.57-.525 1.25-.57 1.995-.358 2.696-.242 5.59.344 8.55 1.442 7.225 3.9 14.496 7.284 21.537l-.002-.005z"/></g><g display="block"><path fill="#007ACC" d="M747.371 392v60l56.816 19.286v-60L747.371 392z"/><path fill="#FFF" d="m759.936 426.464-.018 2.451 7.395 2.51v22.191l5.23 1.775v-22.19l7.395 2.51v-2.409c0-1.334-.027-2.457-.063-2.498-.027-.047-4.527-1.594-9.983-3.437l-9.929-3.342-.027 2.439zM793.216 435.244c1.443.871 2.543 1.92 3.553 3.368.523.768 1.299 2.108 1.362 2.386.018.082-2.453.996-3.95 1.469-.054.02-.271-.302-.514-.765-.731-1.372-1.497-2.118-2.67-2.601-1.722-.709-2.831-.133-2.822 1.46 0 .467.063.764.243 1.207.379.957 1.082 1.691 3.292 3.45 4.067 3.229 5.808 5.039 6.89 7.139 1.208 2.344 1.479 5.521.658 7.538-.901 2.189-3.138 3.125-6.286 2.619-.974-.15-3.282-.962-4.328-1.517-2.282-1.203-4.446-3.128-5.781-5.143-.523-.788-1.542-2.724-1.479-2.817.027-.029.261-.102.523-.175.252-.066 1.208-.323 2.11-.569l1.633-.446.342.65c.478.933 1.524 2.346 2.156 2.912 1.812 1.625 4.301 2.327 5.528 1.581.523-.327.739-.777.739-1.549 0-.695-.081-1.027-.424-1.667-.441-.817-1.343-1.685-3.905-3.725-2.93-2.329-4.193-3.586-5.347-5.292-.668-.988-1.299-2.422-1.561-3.53-.216-.921-.27-3.063-.099-3.862.605-2.786 2.742-4.145 5.826-3.718 1.001.14 3.328 1.006 4.311 1.597z"/></g><g display="block"><path fill="#C63D14" d="M847.666 759.242c0-1.152-.434-2.404-1.205-3.481-.771-1.076-1.819-1.888-2.909-2.259a4.459 4.459 0 0 0-.433-.124l5.65-15.678-24.008-8.15 5.641 19.496c-.082-.028-.165-.064-.248-.092-.983-.335-1.933-.287-2.68.134-.746.42-1.239 1.187-1.39 2.16-.15.974.05 2.091.568 3.149a6.783 6.783 0 0 0 2.252 2.616 11.443 11.443 0 0 1-3.233 3.2c-1.653 1.108-3.617 1.729-5.765 1.822a8.721 8.721 0 0 1-2.635-3.87c-.488-1.475-.485-2.93.007-4.071.121-.259.245-.521.362-.785.917.083 1.732-.194 2.309-.784.577-.59.881-1.46.861-2.461-.02-1-.362-2.075-.97-3.042-.608-.966-1.446-1.765-2.37-2.267-.926-.5-1.884-.673-2.715-.485-.83.187-1.483.721-1.85 1.513-.365.793-.423 1.795-.162 2.84.261 1.044.826 2.068 1.599 2.9-1.313 2.067-2.316 4.41-2.983 6.967-.558 3.368 0 7.332 2.912 10.456 6.787 7.272 14.156 1.725 21.924 2.34 2.815.223 5.906 1.39 8.385.715a4.44 4.44 0 0 0 2.262-1.401c.594-.688.996-1.567 1.177-2.578.165-.965.133-2.023-.093-3.108a11.25 11.25 0 0 0-1.219-3.207c.62-.571.958-1.443.957-2.461l.002-.004zm-13.398-4.524v-.016c0-.747-.18-1.544-.528-2.312a6.909 6.909 0 0 0-1.455-2.078l4.49-8.078 4.496 11.218a2.599 2.599 0 0 0-1.346 1.107c-.32.522-.486 1.17-.485 1.886v.095l-5.172-1.822z"/><path fill="#FFF" d="M848.67 759.582c-.001-1.259-.418-2.62-1.18-3.848-.761-1.228-1.82-2.245-2.99-2.877l5.672-15.742-26.812-9.1 5.682 19.63c-.992-.103-1.896.132-2.595.673-.7.541-1.163 1.364-1.332 2.365-.17 1.001-.037 2.134.381 3.254a8.559 8.559 0 0 0 1.969 3.036 10.843 10.843 0 0 1-2.476 2.236c-1.441.967-3.135 1.54-4.987 1.69a6.934 6.934 0 0 1-1.856-3.012c-.33-1.115-.305-2.201.067-3.061l.062-.134.118-.252c1.052-.028 1.955-.458 2.575-1.224.62-.766.922-1.827.86-3.022-.062-1.195-.485-2.459-1.204-3.6-.72-1.142-1.696-2.099-2.782-2.726-1.086-.628-2.221-.892-3.236-.752-1.014.14-1.852.675-2.386 1.526-.534.85-.734 1.97-.572 3.188.162 1.219.68 2.47 1.474 3.564-.17.327-.352.656-.536.995-1.024 1.639-1.767 3.52-2.21 5.583-.733 4.418.45 8.558 3.332 11.645 1.547 1.693 3.403 2.949 5.305 3.589 3.365 1.141 6.769.512 10.1-.104 2.328-.546 4.784-.784 7.326-.71.91.073 1.848.248 2.841.434 2.022.515 3.994.603 5.807.257a5.078 5.078 0 0 0 2.583-1.603c.679-.787 1.136-1.793 1.343-2.947.335-1.967-.051-4.237-1.09-6.392.491-.68.75-1.566.749-2.56l-.002.001zm-2.008-.681c0 .65-.184 1.222-.525 1.646-.342.424-.827.68-1.395.735-.568.056-1.193-.09-1.796-.422a4.902 4.902 0 0 1-1.592-1.44 4.891 4.891 0 0 1-.852-1.969c-.12-.677-.058-1.317.177-1.837.236-.52.635-.898 1.146-1.085.511-.187 1.113-.175 1.728.033.824.281 1.613.896 2.197 1.708.583.814.91 1.76.912 2.63zm.704-20.615-5.008 13.899a4.177 4.177 0 0 0-.632-.006l-4.948-12.346-4.963 8.918a6.92 6.92 0 0 0-.66-.414l-4.993-17.25 21.204 7.199zm-17.213 11.728c.615.208 1.217.605 1.728 1.14.511.534.91 1.182 1.145 1.861.235.68.297 1.362.177 1.958-.12.596-.417 1.08-.852 1.392-.434.312-.988.437-1.591.358-.603-.078-1.229-.355-1.797-.797a5.176 5.176 0 0 1-1.395-1.682c-.342-.656-.524-1.353-.524-2.002 0-.87.33-1.594.912-2.012.583-.417 1.373-.495 2.197-.216zm-13.45-4.534c.615.209 1.218.606 1.729 1.14a5.172 5.172 0 0 1 1.143 1.865c.235.68.297 1.361.176 1.957-.12.596-.417 1.08-.853 1.39-.436.312-.992.435-1.595.356-.604-.08-1.229-.358-1.797-.8a5.182 5.182 0 0 1-1.392-1.686c-.341-.657-.523-1.354-.521-2.003 0-.87.33-1.593.912-2.011.583-.418 1.373-.496 2.197-.217l.001.009zm30.329 22.018c-.156.866-.502 1.62-1.012 2.21a3.816 3.816 0 0 1-1.94 1.198c-1.594.276-3.32.182-5.087-.278-.998-.187-2.027-.38-3.036-.46-2.685-.09-5.278.155-7.734.73-4.993.924-9.311 1.72-13.37-2.633-2.978-3.191-2.842-7.178-2.495-9.27.41-1.873 1.092-3.58 2.024-5.068l.426-.787c.424.322.869.591 1.322.798-.401 1.363-.288 3 .318 4.626a10.442 10.442 0 0 0 2.998 4.258l.386.341.409-.014c2.28-.095 4.362-.75 6.115-1.924a12.06 12.06 0 0 0 3.026-2.838c1.092.546 2.207.723 3.18.503a3.266 3.266 0 0 0 2.22-1.716c.47-.896.603-2.036.381-3.253-.222-1.217-.789-2.444-1.613-3.498l3.216-5.776 3.25 8.103c-.926.627-1.48 1.712-1.556 3.04-.076 1.328.332 2.801 1.145 4.127.813 1.325 1.97 2.407 3.241 3.029 1.272.621 2.564.738 3.622.328.586 1.448.78 2.928.56 4.226l.004-.002z"/></g><g display="block"><path fill="#47C5FB" d="m572.501 116.343 8.784 12.091 37.166-27.003-17.568-5.709-28.382 20.621zM600.684 123.177l-15.197 11.041 8.819 12.275 8.768-6.371 15.377-11.172-17.767-5.773z"/><path fill="#00569E" d="m594.306 146.493 6.674 9.188 17.47 5.677-15.377-21.236-8.767 6.371z"/><path fill="#00B5F8" d="m585.389 134.29 8.785-6.381 8.899 12.215-8.768 6.369-8.916-12.203z"/></g></g></svg>