<svg xmlns="http://www.w3.org/2000/svg" style="width:100%;height:100%" viewBox="0 0 500 500"><defs><clipPath id="a"><path d="M0 0h500v500H0z"/></clipPath></defs><g clip-path="url(#a)"><g display="block"><path fill="#45EE89" d="m363.242 276.774.692-1.058.694-1.046 1.545-2.352a.628.628 0 0 0-.172-.871.608.608 0 0 0-.856.176l-2.359 3.579-.709 1.077a20.183 20.183 0 0 0-7.38-1.374c-2.633 0-5.137.493-7.379 1.374l-.705-1.076-.699-1.057-1.657-2.521a.618.618 0 0 0-.862-.176.637.637 0 0 0-.173.871l1.544 2.353.694 1.047.697 1.054c-5.265 2.487-8.827 7.412-8.827 12.58h34.734c0-5.168-3.561-10.093-8.822-12.58zm-15.989 7.562c-1.031 0-1.862-.845-1.862-1.888a1.87 1.87 0 0 1 1.862-1.883 1.87 1.87 0 0 1 1.862 1.883c0 1.043-.832 1.888-1.862 1.888zm14.889 0a1.875 1.875 0 0 1-1.863-1.888c0-1.042.833-1.883 1.863-1.883a1.87 1.87 0 0 1 1.86 1.883c0 1.043-.832 1.888-1.86 1.888z"/><path fill="#29E46A" d="M364.002 282.447c0 1.043-.832 1.888-1.86 1.888a1.875 1.875 0 0 1-1.864-1.888c0-.565.249-1.064.637-1.409a36.385 36.385 0 0 0-6.219-.528c-2.17 0-4.256.187-6.219.528.389.344.638.844.638 1.409 0 1.043-.833 1.888-1.861 1.888-1.031 0-1.861-.845-1.861-1.888 0-.267.055-.52.154-.75-2.976.814-5.532 2.004-7.462 3.464-.486 1.33-.755 3.159-.755 4.193h34.734c0-1.034-.269-2.862-.754-4.191-1.929-1.462-4.487-2.654-7.46-3.468.097.231.152.486.152.752z"/></g><g display="block"><path fill="#45EE89" d="M166.822 192.635c5.287 0 9.573 3.762 9.573 8.403 0 4.64-4.286 8.403-9.573 8.403-5.287 0-9.573-3.763-9.573-8.403 0-4.641 4.286-8.403 9.573-8.403z"/><path fill="#253138" d="M166.822 209.331c5.245 0 9.502-3.703 9.569-8.292h.004c0 4.64-4.286 8.403-9.573 8.403-5.287 0-9.573-3.763-9.573-8.403h.004c.067 4.589 4.324 8.292 9.569 8.292z"/><path fill="#3CDC84" d="M166.822 192.635c-5.287 0-9.573 3.762-9.573 8.403h19.146c0-4.641-4.286-8.403-9.573-8.403z"/><path fill="#3CDC84" d="M166.822 198.607c.695 0 1.26.495 1.26 1.106 0 .61-.565 1.105-1.26 1.105-.696 0-1.26-.495-1.26-1.105 0-.611.564-1.106 1.26-1.106z"/><path fill="#FFF" d="M157.249 201.039h19.146v.11h-19.146v-.11zM166.822 192.746c5.245 0 9.502 3.703 9.569 8.292h.004c0-4.64-4.286-8.402-9.573-8.402-5.287 0-9.573 3.762-9.573 8.402h.004c.067-4.589 4.324-8.292 9.569-8.292z"/><path fill="#D6EEFD" d="M168.859 201.038h-2.328l5.925 9.008 1.366.693a.296.296 0 0 0 .127.029c.139 0 .252-.099.252-.221v-1.386l-5.342-8.123z"/><path fill="#D6EEFD" d="M171.86 201.038c0 2.442-2.256 4.423-5.039 4.423a5.58 5.58 0 0 1-2.297-.486l2.297-3.494.291-.443h-2.327l-5.344 8.123v1.386c0 .122.114.221.252.221a.293.293 0 0 0 .127-.029l1.367-.693 2.328-3.538a7.83 7.83 0 0 0 3.306.722c3.896 0 7.054-2.773 7.054-6.192h-2.015z"/><path fill="#062F42" d="M169.089 197.058h-1.26v-1.327h-2.015v1.327h-1.26c-.415 0-.755.299-.755.663v3.317l2.489 2.183a.813.813 0 0 0 .534.194.806.806 0 0 0 .534-.194l2.489-2.183v-3.317c0-.364-.34-.663-.756-.663zm-2.267 3.759c-.695 0-1.26-.495-1.26-1.105 0-.611.565-1.106 1.26-1.106.695 0 1.26.495 1.26 1.106 0 .61-.565 1.105-1.26 1.105z"/></g><g display="block"><path fill="#E9B59A" d="M205.939 260.61h80.26c1.593-4.417 3.047-8.703 3.962-11.961 1.081-3.852.816-24.971.816-24.971s-21.117-9.477-22.529-10.754c-6.924-6.259-8.546-33.612-8.546-33.612h-26.638s-1.389 23.233-7.016 33.118c-1.405 2.467-23.193 12.065-23.434 11.248l.421 22.905 2.704 14.027z"/><path fill="#D29173" d="M263.946 204.217c-3.172-10.305-4.044-24.904-4.044-24.904h-26.637s-1.281 21.341-6.343 31.816c12.553-.731 25.341-2.58 37.024-6.912z"/><path fill="#E9B59A" d="M267.39 172.716s-.28-8.841 7.12-8.508c4.723.212 5.026 4.548 1.265 10.083-1.584 2.33-1.816 7.649-3.765 9.331-2.37 2.047-4.281-1.191-4.973-2.663-1.141-2.437.353-8.243.353-8.243z"/><path fill="#D29173" d="M272.131 168.144c1.396-1.934 3.114-.645 3.866 1.182.752 1.826-.966 4.189-.966 4.189s.966-3.33-.43-4.189c-1.397-.86-4.826 1.589-3.649 3.909 1.179 2.321 2.898 2.536 1.824 3.718-1.075 1.181.107 2.47-1.719 3.007-1.826.538-.967-.429-1.074-3.222-.108-2.793-.108 0 .107-2.793s.839-4.137 2.041-5.801z"/><path fill="#E9B59A" d="M225.773 172.716s.281-8.841-7.12-8.508c-4.722.212-5.026 4.548-1.265 10.083 1.584 2.33 1.816 7.649 3.765 9.331 2.37 2.047 4.282-1.191 4.972-2.663 1.143-2.437-.352-8.243-.352-8.243z"/><path fill="#D29173" d="M221.033 168.144c-1.396-1.934-3.115-.645-3.867 1.182-.752 1.826.967 4.189.967 4.189s-.967-3.33.429-4.189c1.397-.86 4.827 1.589 3.649 3.909-1.178 2.321-2.897 2.536-1.823 3.718 1.075 1.181-.107 2.47 1.719 3.007 1.826.538.967-.429 1.074-3.222.108-2.793.108 0-.107-2.793s-.839-4.137-2.041-5.801z"/><path fill="#E9B59A" d="M274.139 155.458c-.223 2.863-.817 4.718-1.623 8.968-.19 1.023-.4 2.192-.613 3.549-1.682 10.584-4.39 17.855-5.259 19.993-1.435 3.549-8.194 11.447-11.822 13.511-3.628 2.063-10.619 2.167-14.187 0-3.568-2.167-10.828-7.221-12.16-10.809-.817-2.204-5.804-13.25-7.191-24.054a102.592 102.592 0 0 0-.463-3.236c-.667-4.212-1.2-5.879-1.335-8.705-.423-8.968 9.849-21.855 27.645-21.6 21.048.301 27.694 13.431 27.008 22.383z"/><path fill="#D29173" d="M228.564 143.51s9.537 7.134 32.577 1.66c1.811-.43 6.335-3.91 6.335-3.91s-9.084-4.921-22.242-5.012c-13.157-.091-16.67 7.262-16.67 7.262z"/><path fill="#2D353C" d="M272.517 164.425c-.19 1.023-.402 2.192-.615 3.549-1.681 10.584-3.826 24.977-4.696 27.116-1.433 3.548-7.491 6.551-11.12 8.615-3.628 2.064-14.271 2.038-17.839-.129-3.567-2.167-11.629-5.498-12.961-9.086-.818-2.204-2.616-17.07-4.002-27.875a105.34 105.34 0 0 0-.464-3.236l1.483-2.147s1.122 11.149 5.067 15.982c3.94 4.827 5.983 6.957 5.983 6.957s5.442-2.448 13.679-2.448c6.758 0 12.097 2.819 12.097 2.819s2.538-2.08 6.62-6.793c4.082-4.718 5.151-15.82 5.151-15.82l1.617 2.496z"/><path fill="#2D353C" d="M275.513 149.74c-.063.292-1.661 10.749-2.276 12.399-.945 2.524-1.668 4.348-1.668 4.348l-1.044-2.359a34.903 34.903 0 0 1-2.987-13.881l-.061-8.986 3.026-2.6c5.876.964 6.459 4.384 5.01 11.079zM228.957 141.171l-.007.042-1.565 9.221a34.886 34.886 0 0 1-4.472 12.1l-.127.211-1.668 2.789s-.458-1.641-1.092-3.97c-.468-1.719-1.562-10.496-1.837-11.737a24.69 24.69 0 0 1-.23-1.13c-1.16-6.592.105-9.328 5.948-10.117l5.05 2.591z"/><path fill="#2D353C" d="m270.503 138.661-3.026 2.6s-4.887 4.654-24.309 4.147c-11.44-.298-14.437-2.1-14.604-1.897-.006.005-.006.012-.006.012l-1.174-.275-5.585-1.306-1.142-.267s1.377-4.922 2.326-6.309c4.586-6.698 16.854-10.897 27.931-9.614.374.041.742.086 1.111.144 10.34 1.515 15.023 6.464 15.023 6.464l3.455 6.301z"/><path fill="#D29173" d="M251.303 174.836c-1.033-1.311-1.683-5.243-2.001-7.717a2.416 2.416 0 0 0-2.399-2.11 2.416 2.416 0 0 0-2.4 2.11c-.319 2.474-.969 6.406-2.001 7.717-1.549 1.964-1.549 3.66-.43 4.434 1.118.775 1.72-.376 2.494.484.691.768 1.721 1.033 2.366 1.033.699 0 1.616-.265 2.307-1.033.774-.86 1.376.291 2.495-.484 1.118-.774 1.118-2.47-.431-4.434z"/><path fill="#E6AE92" d="M251.029 166.573c-.289-.107.972-3.586 3.886-4.409 4.278-1.206 8.857 2.392 8.857 2.392s-7.512 3.96-12.743 2.017z"/><path fill="#2D353C" d="M251.03 166.573s2.432 1.377 5.68 1.233c5.045-.224 7.062-3.25 7.062-3.25s-5.193 3.138-12.742 2.017zM252.584 157.336c-.513.662-.634 1.288-.634 1.288 0-.315.042-.711.09-1.063a19.13 19.13 0 0 0-.351.09c-.238.851-.189 1.817-.189 1.817s0-.281-.169-1.182a1.967 1.967 0 0 1-.023-.525c-.34.105-.709 1.496-.709 1.496-.292 1.551.211 1.879.211 1.879 3.179-2.738 9.377-1.995 10.767-1.893 1.391.102 2.682-.656 2.682-.656-4.878-1.983-9.311-1.719-11.675-1.251z"/><path fill="#E6AE92" d="M241.768 166.573c.289-.107-.973-3.586-3.888-4.409-4.278-1.206-8.856 2.392-8.856 2.392s7.512 3.96 12.744 2.017z"/><path fill="#2D353C" d="M241.767 166.573s-2.433 1.377-5.681 1.233c-5.045-.224-7.063-3.25-7.063-3.25s5.195 3.138 12.744 2.017zM240.213 157.336c.512.662.633 1.288.633 1.288 0-.315-.042-.711-.09-1.063.125.031.243.061.351.09.238.851.189 1.817.189 1.817s0-.281.169-1.182c.036-.187.037-.361.024-.525.339.105.708 1.496.708 1.496.293 1.551-.211 1.879-.211 1.879-3.179-2.738-9.376-1.995-10.766-1.893-1.391.102-2.682-.656-2.682-.656 4.878-1.983 9.31-1.719 11.675-1.251zM328.404 276.126c7.77 2.411-16.889 29.049-33.777 22.969-16.889-6.08 14.186-29.049 33.777-22.969z"/><path fill="#E9B59A" d="M410.531 338.266c-.117.437-1.012 1.278-2.226 2.215-1.895 1.47-4.547 3.195-6.091 4.036-2.45 1.342-7.05 5.655-7.433 5.804 0 .117-8.402 3.003-12.503 3.323-3.344.255-14.365-.32-21.182-2.269-1.661-.468-3.14-.831-4.323-1.011-5.995-.906-33.896-3.163-38.454-10.394-3.078-4.856-14.025-27.177-16.826-38.976-1.704-7.2-3.355-14.281-4.494-19.18l-1.501-6.538 6.581-40.862c3.429 3.429 13.961 15.367 18.157 29.882 4.206 14.504 13.876 50.318 15.399 54.514 1.522 4.206 31 16.996 31 16.996s3.077-6.155 10.33-8.104c3.62-.969 8.316-5.42 10.446-7.072 2.13-1.661 3.866-1.331 4.122.278.042.255.042.521.01.798-.117 1.076-.778 2.269-1.661 3.461a22.039 22.039 0 0 1-1.204 1.523c-.095.117-.18.223-.276.33-1.055 1.215-2.151 2.353-2.929 3.28-2.077 2.514-2.46 4.931-2.46 4.931s4.132.734 6.858.308c1.055-.148 1.832.406 2.407 1.151.927 1.214 3.109 1.309 5.804.064 5.356-2.492 6.997-3.653 8.583-4.931 2.429-1.97 3.898-.49 3.323 1.449a4.033 4.033 0 0 1-.714 1.342c-.298.372-.799.873-1.416 1.426 1.587-.543 2.949 1.171 2.673 2.226z"/><path fill="#D29173" d="M308.753 312.335c-1.611-9.567-.159-19.934 6.448-27.423 2.615-2.965 5.716-4.98 9.086-6.26-1.556-5.584-2.98-10.663-4.052-14.356-4.196-14.515-14.728-26.452-18.157-29.881l-6.581 40.86 1.501 6.539c1.14 4.899 2.79 11.981 4.494 19.18 1.745 7.353 6.654 18.788 10.85 27.54-1.613-5.431-2.719-11.036-3.589-16.199zM406.536 336.787s.02-.011.031-.021c.469-.277.831-.49 1.033-.618l.03.022c.083-.05.16-.095.226-.128.617-.554 1.118-1.055 1.416-1.427.352-.447.586-.905.714-1.342-1.278.83-3.962 2.587-6.007 4.078-2.704 1.96-9.126 5.187-9.52 5.389a41.55 41.55 0 0 0 3.951-1.502c1.715-.766 5.997-3.183 8.126-4.451zM401.237 341.781c-2.238 1.335-6.351 4.346-6.691 4.505 2.225-.522 10.532-5.304 11.458-5.645.937-.34 1.523.255 1.523.255l.777-.414c1.214-.936.153-3.008-7.067 1.299z"/><path fill="#E9B59A" d="M398.742 336.254c-.373.373-.713.703-1.033 1.001-1.075 1.001-1.917 1.65-2.897 2.375-.489.352-.819.554-.819.554l-1.012-1.14-.235-.267-1.544-1.735-1.331-1.502c3.248-.862 3.717-2.534 3.812-2.662.842-1.268-2.299-3.301-3.578-3.94-.873-.437-1.533-1.033-1.682-1.747a.9.9 0 0 1-.022-.17 1.46 1.46 0 0 1 .108-.692c.074-.223.201-.436.392-.671.192-.234.533-.394.981-.49 2.151-.436 7.029 3.046 8.775 4.92.404.437.703.873.916 1.32.915 1.874.266 3.749-.831 4.846z"/><path fill="#D29173" d="M398.741 336.254c-.373.373-.713.703-1.033 1.001-1.555.788-3.386 1.395-4.728 1.789-1.033.298-1.768.469-1.895.49.106-.043.766-.32 1.661-.757 1.906-.936 4.888-2.566 5.836-4.131.819-1.364 1.256-2.162.99-3.238.915 1.874.266 3.749-.831 4.846zM391.542 321.706c-.117 1.075-.778 2.27-1.662 3.462a21.693 21.693 0 0 1-1.203 1.521c-.096.118-.181.224-.277.33-1.054 1.215-2.15 2.354-2.927 3.281-2.077 2.513-2.461 4.93-2.461 4.93s-.48-.16-1.236.011c-.724.15-3.067.831-3.354.916 1.597-.639 2.864-4.398 5.719-6.496 2.864-2.108 5.485-4.046 7.263-7.933l.138-.022zM372.78 339.75c5.682-2.081 7.589.331 10.692 2.061 3.103 1.728 5.284 1.845 5.284 1.845s-4.205-2.268-6.364-5.121c-2.16-2.851-9.612 1.215-9.612 1.215z"/><path fill="#E9B59A" d="M374.68 352.633c9.964 1.013 18.464.189 23.138-2.618 4.673-2.808 5.641-3.763 8.278-5.683 2.638-1.92 2.112-3.786 1.131-4.316-.946-.513-1.83.032-4.116 1.259-5.37 2.88-14.077 5.785-14.077 5.785l-14.354 5.573z"/><path fill="#FF737E" d="M328.403 276.128s-15.452-.447-26.017 9.03a27.139 27.139 0 0 0-6.411 8.531s-2.076-15.388-4.525-34.717c-.416-3.344-.853-6.805-1.289-10.319-2.96-23.865 5.484-25.558 5.484-25.558 14.515 5.069 19.243 21.958 26.006 37.496l6.752 15.537z"/><path fill="#EE4F5F" d="M302.387 285.158a27.124 27.124 0 0 0-6.411 8.531s-6.753-24.317-2.699-50.663c2.374 8.977 5.606 34.678 9.11 42.132z"/><path fill="#2D353C" d="M165.602 276.126c-7.769 2.411 16.89 29.049 33.778 22.969 16.889-6.08-14.187-29.049-33.778-22.969z"/><path fill="#E9B59A" d="M83.477 338.266c.117.437 1.012 1.278 2.226 2.215 1.896 1.47 4.546 3.195 6.09 4.036 2.45 1.342 7.051 5.655 7.434 5.804 0 .117 8.402 3.003 12.502 3.323 3.345.255 14.366-.32 21.181-2.269 1.661-.468 3.142-.831 4.323-1.011 5.996-.906 33.897-3.163 38.455-10.394 3.078-4.856 14.026-27.177 16.827-38.976 1.704-7.2 3.355-14.281 4.494-19.18.916-3.993 1.502-6.538 1.502-6.538l-6.582-40.862c-3.429 3.429-13.961 15.367-18.157 29.882-4.206 14.504-13.876 50.318-15.399 54.514-1.522 4.206-31 16.996-31 16.996s-3.078-6.155-10.331-8.104c-3.62-.969-8.315-5.42-10.445-7.072-2.13-1.661-3.867-1.331-4.122.278a2.833 2.833 0 0 0-.011.798c.117 1.076.777 2.269 1.661 3.461.362.511.778 1.023 1.205 1.523.095.117.18.223.276.33 1.055 1.215 2.151 2.353 2.929 3.28 2.076 2.514 2.459 4.931 2.459 4.931s-4.132.734-6.858.308c-1.055-.148-1.832.406-2.407 1.151-.926 1.214-3.11 1.309-5.804.064-5.357-2.492-6.995-3.653-8.582-4.931-2.429-1.97-3.898-.49-3.323 1.449.128.436.361.894.713 1.342.298.372.798.873 1.416 1.426-1.587-.543-2.949 1.171-2.672 2.226z"/><path fill="#D29173" d="M185.254 312.335c1.611-9.567.159-19.934-6.448-27.423-2.615-2.965-5.717-4.98-9.087-6.26 1.556-5.584 2.982-10.663 4.054-14.356 4.195-14.515 14.728-26.452 18.156-29.881l6.582 40.86s-.586 2.545-1.502 6.539a5049.941 5049.941 0 0 1-4.494 19.18c-1.745 7.353-6.653 18.788-10.849 27.54 1.612-5.431 2.719-11.036 3.588-16.199zM87.47 336.787s-.02-.011-.031-.021c-.468-.277-.832-.49-1.034-.618l-.03.022a3.025 3.025 0 0 0-.225-.128c-.617-.554-1.118-1.055-1.416-1.427a4.036 4.036 0 0 1-.715-1.342c1.279.83 3.962 2.587 6.007 4.078 2.705 1.96 9.127 5.187 9.521 5.389a41.66 41.66 0 0 1-3.951-1.502c-1.714-.766-5.996-3.183-8.126-4.451zM92.771 341.781c2.238 1.335 6.35 4.346 6.69 4.505-2.226-.522-10.532-5.304-11.459-5.645-.937-.34-1.522.255-1.522.255l-.777-.414c-1.214-.936-.152-3.008 7.068 1.299z"/><path fill="#E9B59A" d="M95.265 336.254c.373.373.714.703 1.033 1.001 1.076 1.001 1.917 1.65 2.897 2.375.489.352.82.554.82.554l1.011-1.14.235-.267 1.544-1.735 1.331-1.502c-3.248-.862-3.717-2.534-3.812-2.662-.842-1.268 2.3-3.301 3.578-3.94.873-.437 1.533-1.033 1.682-1.747a.9.9 0 0 0 .022-.17 1.47 1.47 0 0 0-.107-.692 2.118 2.118 0 0 0-.394-.671c-.192-.234-.532-.394-.98-.49-2.151-.436-7.028 3.046-8.775 4.92a5.337 5.337 0 0 0-.916 1.32c-.915 1.874-.266 3.749.831 4.846z"/><path fill="#D29173" d="M95.265 336.254c.373.373.714.703 1.033 1.001 1.555.788 3.386 1.395 4.728 1.789 1.033.298 1.769.469 1.897.49-.106-.043-.768-.32-1.662-.757-1.907-.936-4.888-2.566-5.836-4.131-.82-1.364-1.256-2.162-.99-3.238-.915 1.874-.267 3.749.83 4.846zM102.465 321.706c.117 1.075.777 2.27 1.661 3.462.362.511.777 1.021 1.204 1.521.095.118.18.224.277.33 1.054 1.215 2.15 2.354 2.928 3.281 2.076 2.513 2.46 4.93 2.46 4.93s.479-.16 1.235.011c.724.15 3.067.831 3.355.916-1.598-.639-2.865-4.398-5.719-6.496-2.864-2.108-5.484-4.046-7.263-7.933l-.138-.022zM121.227 339.75c-5.682-2.081-7.589.331-10.692 2.061-3.103 1.728-5.284 1.845-5.284 1.845s4.204-2.268 6.363-5.121c2.16-2.851 9.613 1.215 9.613 1.215z"/><path fill="#E9B59A" d="M119.327 352.633c-9.964 1.013-18.464.189-23.137-2.618-4.674-2.808-5.644-3.763-8.28-5.683-2.637-1.92-2.111-3.786-1.13-4.316.946-.513 1.83.032 4.116 1.259 5.37 2.88 14.076 5.785 14.076 5.785l14.355 5.573z"/><path fill="#FF737E" d="M165.604 276.128s15.452-.447 26.016 9.03a27.139 27.139 0 0 1 6.411 8.531s2.076-15.388 4.526-34.717c.415-3.344.852-6.805 1.288-10.319 2.961-23.865-5.484-25.558-5.484-25.558-14.515 5.069-19.243 21.958-26.006 37.496l-6.751 15.537z"/><path fill="#EE4F5F" d="M191.62 285.158a27.154 27.154 0 0 1 6.411 8.531s6.753-24.317 2.699-50.663c-2.374 8.977-5.607 34.678-9.11 42.132z"/><path fill="#420107" d="M186.54 349.086c-2.224 13.344 10.133 23.645 47.288 29.724 37.155 6.08 67.33-7.881 74.761-27.472l-51.456-57.984s-66.54 31.413-70.593 55.732z"/><path fill="#FF737E" d="M216.264 216.679s24.32 26.346 31.52 26.346c4.959 0 29.279-27.697 29.279-27.697l18.578 7.768s-2.608 45.489 2.778 64.882c5.388 19.393 10.17 63.36 10.17 63.36-6.531-4.954-14.415 34.066-81.516-4.278-28.373-16.213-40.533 2.026-40.533 2.026s2.164-13.866 7.431-34.453c7.431-29.048 4.391-91.538 4.391-91.538s7.559-3.553 17.902-6.416z"/><path fill="#35506B" d="M337.494 353c-17.161-4.477-47.007 9.7-56.707 9.7l-33.893 5.981-33.893-5.981c-9.7 0-39.546-14.177-56.708-9.7-17.161 4.477 11.193 44.77 47.008 57.454 17.87 6.329 69.315 6.329 87.186 0 35.815-12.684 64.169-52.977 47.007-57.454z"/><path fill="#5A7792" d="M337.494 353c-17.161-4.477-47.007 9.7-56.707 9.7 10.737 1.454 36.213-3.143 36.213-3.143s-6.756 1.689-13.173 9.796c-6.418 8.106-54.044 51.341-54.044 51.341s-26.009-23.644-32.765-32.764c-6.755-9.12-20.604-20.604-24.319-24.995-2.341-2.767 3.503-2.181 16.505-.693-12.184-2.382-37.594-13.238-52.911-9.242-17.161 4.477 11.193 44.77 47.008 57.454 17.87 6.329 30.166 9.871 38.003 11.832l-.063 2.345s1.753-.197 5.653-1.037c3.9.84 5.653 1.037 5.653 1.037l-.064-2.345c7.837-1.961 20.133-5.503 38.004-11.832 35.815-12.684 64.169-52.977 47.007-57.454z"/><path fill="#E9B59A" d="M364.59 372.4c-1.609 4.279-4.51 8.33-8.16 12.08-11.569 11.97-30.67 21.039-39.46 25.359-6.64 3.26-13.779 6.061-20.76 8.43-17.74 6.061-34.39 9.441-38.74 10.83-5.01 1.62-14.29 6.28-21.47 8.49-.93.29-1.82.531-2.66.731-.56.12-1.1.229-1.61.309-7.27 1.111-25.74-3.919-32.46-3.919-6.72 0-11.19 5.589-14.55 3.919-3.36-1.689-2.23-8.41 0-9.53 0 0-1.68-4.47 2.79-6.699 2.79-1.391 4.93-2.57 7.36-3.12 1.47-.351 3.06-.45 4.96-.24 4.85.53 22.15 3.15 25.92 2.339.15-.03.27-.059.38-.099 2.8-1.12 6.15-7.28 11.75-7.28 3.27 0 5.4-.38 9.75-3.06 3.08-1.891 7.26-4.931 13.76-9.811 1.551-1.16 3.27-2.57 5.12-4.139 13.37-11.391 34.101-32.12 56.57-42.42 6.1-2.79 12.33-4.82 18.571-5.681 6.46-.889 19.049 2.431 23.029 11.08 1.53 3.33 1.78 7.451-.09 12.431z"/><path fill="#D29173" d="M364.68 359.97c-2.22-1.3-4.939-2.3-8.25-2.7-11.859-1.44-18.22-5.619-33.35-2.699 6.1-2.79 12.33-4.821 18.571-5.681 6.46-.89 19.05 2.431 23.029 11.08zM296.21 418.274c-17.741 6.06-34.387 9.436-38.742 10.83-5.005 1.619-14.291 6.273-21.469 8.488-3.12-5.687-6.837-11.906-10.245-16.209.149-.031.267-.063.373-.106 2.801-1.118 6.156-7.274 11.757-7.274 3.269 0 5.399-.382 9.744-3.066 3.078-1.885 7.263-4.931 13.759-9.809 1.554-1.16 3.269-2.566 5.123-4.142-6.741 8.871-7.711 16.209 3.802 18.307 7.241 1.309 17.4 2.31 25.898 2.981z"/><path fill="#D29173" d="M356.432 384.482c-11.575 11.97-30.67 21.032-39.466 25.356-23.503 11.544-53.428 17.316-59.498 19.265-5.643 1.82-16.751 7.519-24.131 9.211-3.493-1.97-6.24-3.663-7.54-4.781-4.163-3.578-21.202-10.489-30.925-14.259 1.47-.341 3.056-.447 4.962-.234 5.037.553 23.503 3.354 26.293 2.236 2.801-1.118 6.156-7.273 11.757-7.273 3.27 0 3.163 5.321 7.508 2.637 7.497 2.067 19.081 2.736 33.777 1.352 15.335-1.439 54.044-14.863 77.263-33.51z"/><path fill="none" stroke="#1C4368" stroke-miterlimit="10" stroke-width="1.065" d="m247.756 368.677.338 41.208"/><path fill="none" stroke="#1D4368" stroke-miterlimit="10" stroke-width="1.065" d="M254.85 366.988s2.026 7.431.676 11.146c-1.352 3.715-7.431 8.446-7.431 8.446"/><path fill="#E9B59A" d="M152.141 348.889c-8.938-1.233-29.659 5.596-22.944 23.504 6.715 17.907 36.204 31.547 47.626 37.506 23.306 12.16 53.34 17.53 59.496 19.209 6.156 1.678 18.466 8.394 25.741 9.513 7.275 1.12 25.742-3.918 32.458-3.918 6.715 0 11.192 5.597 14.551 3.918 3.357-1.678 2.238-8.394 0-9.513 0 0 1.677-4.477-2.8-6.715-4.477-2.239-7.274-3.918-12.312-3.358-5.036.559-23.503 3.358-26.301 2.238-2.798-1.119-6.155-7.275-11.75-7.275-5.597 0-10.835-1.119-26.505-12.871-15.821-11.866-44.802-47.761-77.26-52.238z"/><path fill="#D29173" d="M129.327 359.97c2.22-1.3 4.94-2.3 8.25-2.7 11.86-1.44 18.22-5.619 33.35-2.699-6.1-2.79-12.33-4.821-18.57-5.681-6.46-.89-19.051 2.431-23.03 11.08z"/></g><g display="block"><path fill="#00ABAC" d="m62.738 383.232-1.164 2.605-.88-.386 1.165-2.604.879.385zM85.275 393.609l-.8 1.79-6.49-2.517 1.066-2.385 6.224 3.112z"/><path fill="#414042" d="m90.762 396.915-.097.217-1.807-.53.292-.652 1.612.965z"/><path fill="#00ABAC" d="m44.732 375.876 2.554.729-1.069 2.385-2.261-1.379.776-1.735z"/><path fill="#FFF" d="m79.051 390.497-1.065 2.386-16.339-7.209 1.02-2.279 16.384 7.102z"/><path fill="none" stroke="#9BDEDE" stroke-miterlimit="10" stroke-width=".2" d="m79.051 390.497-1.065 2.386-16.339-7.209 1.02-2.279 16.384 7.102z"/><path fill="#DBF3F3" d="m61.858 382.848-1.164 2.604-14.476-6.462 1.067-2.386 14.573 6.244z"/><path fill="#CEEEEF" d="m89.199 395.841-.389.869-4.335-1.311.8-1.791 3.924 2.233z"/><path fill="#00ABAC" d="m44.275 376.9-.318.712 2.261 1.379 14.476 6.461.88.384.073-.164.001.002 16.337 7.209 6.491 2.516 4.334 1.312.048-.109 1.807.53.067-.149L44.275 376.9z"/></g><g display="block"><path fill="#00ABAC" d="M303.941 117.901c-3.59 0-7.079-.992-9.861-2.8l-8.118 2.02a.672.672 0 0 1-.751-.983l3.838-6.853a10.417 10.417 0 0 1-.814-4.031c0-3.407 1.655-6.601 4.658-8.993 2.958-2.356 6.881-3.654 11.048-3.654 4.168 0 8.092 1.298 11.05 3.654 3.003 2.392 4.657 5.586 4.657 8.993s-1.654 6.602-4.657 8.993c-2.958 2.356-6.882 3.654-11.05 3.654zm-9.736-4.199c.134 0 .266.04.378.116 2.601 1.764 5.926 2.735 9.358 2.735 7.918 0 14.36-5.069 14.36-11.299 0-6.231-6.442-11.3-14.36-11.3-7.917 0-14.358 5.069-14.358 11.3 0 1.301.279 2.576.83 3.79a.675.675 0 0 1-.025.608l-3.24 5.785 6.894-1.715a.693.693 0 0 1 .163-.02z"/><path fill="#00ABAC" d="M310.838 108.4a2.84 2.84 0 0 1-2.836-2.835 2.84 2.84 0 0 1 2.836-2.835 2.838 2.838 0 0 1 2.834 2.835 2.838 2.838 0 0 1-2.834 2.835zm0-4.353a1.52 1.52 0 0 0-1.518 1.518 1.519 1.519 0 1 0 1.518-1.518zM303.95 108.4a2.838 2.838 0 0 1-2.834-2.835 2.838 2.838 0 0 1 2.834-2.835 2.838 2.838 0 0 1 2.834 2.835 2.838 2.838 0 0 1-2.834 2.835zm0-4.353a1.52 1.52 0 0 0-1.518 1.518 1.519 1.519 0 1 0 1.518-1.518zM297.063 108.4a2.84 2.84 0 0 1-2.835-2.835 2.84 2.84 0 0 1 2.835-2.835 2.838 2.838 0 0 1 2.835 2.835 2.838 2.838 0 0 1-2.835 2.835zm0-4.353c-.836 0-1.518.682-1.518 1.518a1.518 1.518 0 1 0 1.518-1.518z"/></g><g display="block"><path fill="#F0F1F1" d="m456.219 216.302-37.727-15.928s-15.673 13.743-19.975 19.333c-4.577 5.946-14.446 26.016-14.446 26.016l30.311 12.233 4.238 1.614 8.04-3.139s7.822-16.05 10.501-18.756c5.002-5.052 19.058-21.373 19.058-21.373z"/><path fill="#FFF" d="m456.219 216.301-37.727-15.927s-15.673 13.743-19.975 19.333c-.32.416-.668.902-1.034 1.445 11.331 4.543 33.857 14.649 38.503 17.231.128.071.269.123.419.165.267-.341.52-.635.756-.873 5.002-5.052 19.058-21.374 19.058-21.374z"/><path fill="#86ACAC" d="m445.774 218.487-26.421-11.154s-1.696 2.055-2.407 2.289c0 0 26.624 11.053 27.108 10.537l1.72-1.672zM440.579 223.934l-26.421-11.153-2.407 2.289 26.579 10.989 2.249-2.125zM435.016 229.757l-26.419-11.153-2.409 2.289 26.581 10.989 2.247-2.125zM429.174 236.787l-26.419-11.155-1.833 2.724 26.579 10.99 1.673-2.559zM425.279 243.423l-26.419-11.155-1.833 2.723 26.579 10.991 1.673-2.559z"/><path fill="#929497" d="m421.861 255.111-3.241 4.459 8.04-3.139-4.799-1.32z"/></g><g display="block"><path fill="#192E35" d="m116.513 232.211-10.681 12.612c-1.285 1.517-3.523 1.585-4.999.152l-30.775-29.877c-1.478-1.434-1.634-3.827-.349-5.345l10.681-12.612c1.285-1.516 3.524-1.584 5-.151l30.774 29.876c1.478 1.434 1.634 3.827.349 5.345z"/><path fill="#FFF" d="m81.468 198.21-2.071 2.445c-.277.328-.232.857.102 1.18l.431.421c.334.324.379.851.101 1.179l-4.036 4.767c-.277.328-.774.332-1.107.008l-.432-.419c-.333-.324-.829-.322-1.107.006l-.728.861-1.813 2.139c-.9 1.063-.791 2.74.243 3.745l30.04 29.16c1.034 1.004 2.601.957 3.501-.105l10.659-12.588c.901-1.063.792-2.738-.243-3.743l-30.039-29.161c-1.034-1.003-2.601-.957-3.501.105z"/><path fill="#192E35" d="M84.817 200.781c.008.008-.252.336-.581.731-.329.396-.603.71-.611.703-.008-.008.253-.335.582-.731.329-.395.602-.71.61-.703zM85.173 201.122c.008.008-.252.336-.581.731-.329.396-.603.71-.611.703-.008-.008.253-.336.582-.731.329-.396.602-.71.61-.703zM85.53 201.462c.008.008-.252.336-.581.731-.329.396-.603.71-.611.703-.008-.008.253-.335.582-.731.329-.395.602-.71.61-.703zM74.993 214.788l.022-.031.068-.085.25-.31.001.017-.218-.204c-.04-.039-.081-.072-.123-.12a.17.17 0 0 1-.005-.191c.041-.05.076-.095.123-.145a.142.142 0 0 1 .197.011l.317.299-.026.001.319-.388.004.03-.468-.446-.12-.114c-.037-.035-.081-.036-.134-.031l-.302.011-.291.011-.142.006c-.048.002-.091-.002-.123.023a.135.135 0 0 0-.059.104c-.001.041.005.092.007.137l.019.269c.015.17.018.338.038.477.019.067.079.107.124.154l.13.127a141.743 141.743 0 0 0 .392.388.397.397 0 0 1-.048-.04l-.136-.126-.217-.201-.136-.128a2.557 2.557 0 0 0-.075-.069.248.248 0 0 1-.06-.097c-.024-.153-.028-.311-.044-.485a16.92 16.92 0 0 1-.019-.268c-.003-.047-.009-.089-.009-.143a.172.172 0 0 1 .072-.132c.043-.033.098-.026.141-.029l.143-.006.291-.013.302-.013c.025 0 .05-.003.08.002.029.006.058.02.081.041l.119.115.468.446.013.013-.011.016-.321.385-.013.014-.013-.013a67.71 67.71 0 0 0-.314-.301c-.043-.046-.114-.049-.156-.011-.04.042-.081.095-.117.138a.137.137 0 0 0 .001.154c.035.04.082.08.119.117l.213.208.01.008-.008.008c-.107.126-.196.228-.264.307l-.069.079-.023.024z"/><path fill="#F5F5F5" d="m89.24 207.085-9.614 11.366c-.481.569-1.319.593-1.872.057l-.372-.36c-.554-.537-.613-1.434-.132-2.002l9.614-11.366c.481-.569 1.319-.594 1.873-.057l.372.362c.553.536.612 1.432.131 2z"/><path fill="#192E35" d="M89.24 207.085s.019-.029.059-.083c.039-.054.091-.141.145-.262a1.493 1.493 0 0 0-.011-1.156 1.424 1.424 0 0 0-.208-.35c-.089-.11-.2-.21-.312-.319-.114-.107-.225-.229-.362-.322a1.3 1.3 0 0 0-.461-.205 1.217 1.217 0 0 0-1.031.233c-.152.121-.273.291-.412.45l-.419.497-8.952 10.6a1.382 1.382 0 0 0-.317.938c.01.342.144.682.366.933.111.123.241.238.36.358.12.122.242.228.386.304.282.155.609.197.905.121.148-.036.287-.103.41-.194.124-.089.223-.207.325-.328l.601-.711c.398-.468.786-.928 1.166-1.376l4.033-4.757 2.724-3.203.742-.868.195-.225.068-.075-.063.08-.19.229-.733.878-2.708 3.218-4.024 4.767-1.163 1.377-.601.712c-.1.119-.205.244-.335.338a1.218 1.218 0 0 1-.43.204 1.31 1.31 0 0 1-.949-.127 1.696 1.696 0 0 1-.401-.315c-.121-.121-.245-.23-.364-.361a1.567 1.567 0 0 1-.384-.98c-.013-.36.107-.72.332-.984a68427.816 68427.816 0 0 1 9.388-11.082c.139-.157.26-.328.419-.454a1.247 1.247 0 0 1 1.062-.234c.174.039.334.114.473.212.14.098.251.221.364.328.111.11.223.21.313.325.092.112.158.237.21.358a1.497 1.497 0 0 1 0 1.172 1.348 1.348 0 0 1-.152.26l-.064.079z"/><path fill="#192E35" d="M88.17 205.669c-.004.005-.042-.033-.123-.076a.528.528 0 0 0-.755.289.624.624 0 0 0 .151.647.524.524 0 0 0 .615.097.558.558 0 0 0 .284-.452.661.661 0 0 0-.089-.382c-.049-.081-.087-.118-.083-.123a.472.472 0 0 1 .105.109.662.662 0 0 1 .112.4.605.605 0 0 1-.299.505.583.583 0 0 1-.688-.104.689.689 0 0 1-.164-.722.569.569 0 0 1 .44-.369.556.556 0 0 1 .47.151c.018.018.025.029.024.03z"/><path fill="#192E35" d="M89.119 206.147c0 .019-.167.032-.375.03-.208-.003-.378-.02-.378-.039-.001-.019.167-.033.375-.03.208.002.378.02.378.039z"/><path fill="#E0E0E0" d="m78.862 216.284-.201.239-.062-.058.467-.551.061.058-.203.24.603.585-.062.071-.603-.584zM79.918 215.843l-.363.428c.111.093.249.079.344-.032a.282.282 0 0 0 .067-.222l.077.004a.346.346 0 0 1-.086.276c-.135.16-.333.167-.481.024-.148-.144-.163-.352-.041-.496.121-.144.313-.148.463-.003a.35.35 0 0 0 .02.021zm-.413.379.307-.362c-.105-.086-.235-.079-.32.021-.084.099-.077.237.013.341zM80.53 215.611l-.347-.04.071.366-.067.078-.084-.45-.405-.043.066-.078.326.036-.065-.344.063-.075.079.427.429.044-.066.079zM80.891 215.118c0 .05-.024.103-.058.142-.081.096-.178.099-.27.009l-.302-.292-.077.092-.058-.055.077-.092-.108-.106.058-.069.11.106.132-.156.056.055-.132.156.298.289c.058.057.118.057.166-.001a.151.151 0 0 0 .039-.1l.069.022z"/><path fill="#FF4F5B" d="m86.535 220.647-2.486 2.938-2.86-2.774 2.486-2.938 2.86 2.774zM88.764 212.518c.013.013-.807 1.006-1.832 2.218s-1.867 2.184-1.88 2.171c-.014-.013.806-1.005 1.832-2.217 1.025-1.212 1.866-2.185 1.88-2.172z"/><path fill="#192E35" d="M92.601 209.869c.013.013-1.47 1.79-3.312 3.968-1.843 2.178-3.347 3.933-3.36 3.92-.014-.013 1.468-1.789 3.312-3.968 1.842-2.178 3.346-3.933 3.36-3.92zM93.148 210.569c.014.013-1.453 1.769-3.273 3.921-1.822 2.153-3.309 3.888-3.322 3.874-.013-.013 1.451-1.768 3.273-3.921 1.821-2.152 3.308-3.887 3.322-3.874zM91.044 214.341c.013.013-.848 1.054-1.922 2.325-1.076 1.271-1.958 2.291-1.972 2.278-.013-.013.848-1.054 1.923-2.325 1.075-1.271 1.957-2.291 1.971-2.278z"/><path fill="#FF4F5B" d="m91.297 225.269-2.485 2.938-2.859-2.774 2.485-2.938 2.859 2.774zM93.528 217.14c.013.013-.807 1.006-1.832 2.218s-1.867 2.184-1.88 2.171c-.014-.013.806-1.005 1.832-2.217 1.025-1.212 1.866-2.185 1.88-2.172z"/><path fill="#192E35" d="M97.364 214.491c.014.013-1.47 1.79-3.312 3.968-1.843 2.178-3.347 3.933-3.36 3.921-.014-.014 1.468-1.79 3.312-3.969 1.842-2.177 3.346-3.933 3.36-3.92zM97.911 215.191c.013.013-1.452 1.769-3.272 3.921-1.822 2.153-3.309 3.888-3.322 3.875-.013-.013 1.451-1.769 3.273-3.922 1.821-2.152 3.307-3.887 3.321-3.874zM95.807 218.963c.013.013-.848 1.054-1.922 2.325-1.076 1.271-1.958 2.291-1.972 2.278-.013-.014.848-1.054 1.923-2.326 1.075-1.27 1.957-2.29 1.971-2.277z"/><path fill="#FF4F5B" d="m96.06 229.891-2.485 2.938-2.859-2.774 2.485-2.938 2.859 2.774zM98.291 221.762c.013.013-.807 1.006-1.832 2.218s-1.867 2.184-1.88 2.171c-.014-.013.806-1.005 1.832-2.217 1.025-1.212 1.866-2.185 1.88-2.172z"/><path fill="#192E35" d="M102.127 219.114c.013.013-1.47 1.79-3.312 3.967-1.843 2.179-3.347 3.934-3.36 3.921-.014-.013 1.469-1.789 3.312-3.968 1.842-2.178 3.346-3.933 3.36-3.92zM102.674 219.814c.013.013-1.452 1.769-3.272 3.921-1.822 2.154-3.309 3.888-3.322 3.875-.013-.013 1.451-1.769 3.273-3.921 1.821-2.153 3.308-3.888 3.321-3.875zM100.571 223.586c.013.013-.848 1.054-1.922 2.325-1.076 1.271-1.958 2.291-1.972 2.278-.013-.013.848-1.054 1.923-2.325 1.075-1.271 1.957-2.291 1.971-2.278z"/><path fill="#FF4F5B" d="m100.824 234.514-2.486 2.938-2.86-2.774 2.486-2.938 2.86 2.774z"/><path fill="#375964" d="M103.054 226.384c.013.013-.807 1.006-1.832 2.218s-1.867 2.184-1.88 2.171c-.014-.013.806-1.005 1.832-2.217 1.025-1.212 1.866-2.185 1.88-2.172z"/><path fill="#192E35" d="M106.89 223.736c.013.013-1.47 1.79-3.312 3.968-1.843 2.178-3.347 3.933-3.36 3.92-.014-.013 1.468-1.789 3.312-3.968 1.842-2.178 3.346-3.933 3.36-3.92zM107.437 224.436c.013.013-1.452 1.769-3.272 3.921-1.822 2.153-3.309 3.888-3.322 3.874-.013-.013 1.451-1.768 3.273-3.921 1.821-2.152 3.307-3.887 3.321-3.874zM105.333 228.208c.014.013-.847 1.054-1.922 2.325-1.075 1.271-1.957 2.291-1.971 2.278-.013-.013.847-1.054 1.922-2.325 1.075-1.271 1.958-2.291 1.971-2.278z"/><path fill="#E0E0E0" d="m105.586 239.136-2.485 2.938-2.859-2.774 2.485-2.938 2.859 2.774zM107.817 231.006c.013.013-.807 1.006-1.832 2.218s-1.867 2.184-1.88 2.171c-.014-.013.806-1.005 1.832-2.217 1.025-1.212 1.866-2.185 1.88-2.172z"/><path fill="#EBEBEB" d="M111.654 228.358c.013.013-1.47 1.79-3.312 3.968-1.843 2.178-3.348 3.933-3.362 3.921-.013-.014 1.47-1.79 3.314-3.969 1.842-2.177 3.346-3.933 3.36-3.92zM112.2 229.058c.013.013-1.452 1.769-3.272 3.921-1.822 2.153-3.309 3.888-3.322 3.875-.013-.013 1.451-1.769 3.273-3.922 1.821-2.152 3.307-3.887 3.321-3.874zM110.097 232.83c.014.013-.847 1.054-1.922 2.325-1.075 1.271-1.957 2.291-1.971 2.278-.013-.014.847-1.054 1.922-2.326 1.075-1.27 1.958-2.29 1.971-2.277z"/><path d="m100.823 234.514-2.486 2.938-2.859-2.774 2.486-2.938 2.859 2.774zM91.297 225.269l-2.485 2.938-2.859-2.774 2.485-2.938 2.859 2.774z"/></g><g display="block"><path fill="#929497" d="m348.07 426.656-.016-4.62 107.464 8.923-.251 4.705-107.197-9.008z"/><path fill="#A7A9AC" d="M421.344 419.972c-1.83-.817-4.61-1.336-6.208-1.157l-66.001 7.362c-1.599.179-1.412.985.418 1.802l32.418 14.467c1.829.817 4.61 1.334 6.208 1.156l66.001-7.363c1.6-.178 1.412-.985-.418-1.801l-32.418-14.466z"/><path fill="#D1D2D3" d="M421.344 415.299c-1.83-.816-4.61-1.334-6.209-1.155l-66 7.362c-1.599.179-1.412.985.418 1.801l32.418 14.468c1.829.816 4.61 1.334 6.208 1.155l66.001-7.362c1.6-.178 1.412-.986-.418-1.802l-32.418-14.467z"/><path fill="#B6C7E0" d="M379.755 428.02c-.595 5.508 2.601 9.608 7.136 9.16l63.131-6.237c4.537-.448 8.696-5.278 9.292-10.785l7.308-45.744c.596-5.508-2.601-9.608-7.137-9.16l-65.573 6.238c-4.535.448-8.694 5.276-9.291 10.784l-4.866 45.744z"/><path fill="#929497" d="M380.624 428.424c-.595 5.509 3.637 10.562 8.172 10.113l62.095-7.19c4.536-.448 8.696-5.277 9.291-10.783l6.645-45.069c.597-5.508-2.601-9.607-7.137-9.16l-64.909 6.238c-4.535.449-8.695 5.276-9.291 10.783l-4.866 45.068z"/><path fill="#D1D2D3" d="M383.511 429.457c-.595 5.508 2.602 9.608 7.139 9.16l63.13-6.237c4.537-.448 8.694-5.275 9.29-10.782l4.868-45.07c.594-5.508-2.601-9.607-7.138-9.159l-63.129 6.236c-4.537.449-8.697 5.277-9.292 10.784l-4.868 45.068z"/><path fill="#FFF" d="M420.468 404.026c-.413 3.826 1.808 6.675 4.96 6.363 3.151-.31 6.04-3.665 6.452-7.492.414-3.825-1.805-6.674-4.956-6.362-3.151.31-6.043 3.666-6.456 7.491z"/></g></g></svg>