<svg xmlns="http://www.w3.org/2000/svg" style="width:100%;height:100%" viewBox="0 0 1000 1000"><defs><linearGradient id="c" x1="-294" x2="276" y1="54" y2="-48" gradientUnits="userSpaceOnUse" spreadMethod="pad"><stop offset="0%" stop-color="#8751FB"/><stop offset="50%" stop-color="#B899FA"/><stop offset="100%" stop-color="#CAB4F8"/></linearGradient><linearGradient id="b" x1="-294" x2="276" y1="54" y2="-48" gradientUnits="userSpaceOnUse" spreadMethod="pad"><stop offset="0%" stop-color="#AE8DF6"/><stop offset="50%" stop-color="#9A74EC"/><stop offset="100%" stop-color="#885FE3"/></linearGradient><clipPath id="a"><path d="M0 0h1000v1000H0z"/></clipPath></defs><g clip-path="url(#a)"><g display="block"><path fill="url(#b)" fill-opacity=".2" d="M20.36 371.77c-268.37 46.12-528.69-177.2-444.32-487.04 63.86-234.55 279.18-429 504.33-405.34 225.15 23.67 312.25 247.56 347.36 488.1 41.9 287.08-184.25 365.93-407.37 404.28z" transform="matrix(.91 0 0 .9191 480 552)"/></g><g display="block"><path fill="url(#c)" fill-opacity=".2" d="M-56-414c234-66 486 108 440 391-34.82 214.24-207.86 407-410 407S-326.37 193.32-380-17c-64-251 129.45-342.13 324-397z" transform="matrix(.91 0 0 .9191 480 552)"/></g><g display="block"><path fill="#C5B2EF" fill-opacity=".5" d="M623.622 818.895c-42.92 0-80.181-5.085-115.913-10.164-35.735-5.085-69.936-10.17-106.763-10.17-14.348 0-29.1.776-44.492 2.617-18.74 2.249-38.196 3.223-56.825 3.223-91.485 0-162.844-23.486-29.235-35.052 156.366-13.53 354.146-20.1 449.18-20.1 2.708 0 5.337.006 7.877.016 106.274.443 88.373 52.361-47.191 66.641a538.644 538.644 0 0 1-56.638 2.989z" opacity=".493"/><path fill="#31320F" d="M489.646 670.888S314.899 549.513 240.98 619.5c-59.022 55.881 45.747 121.533 179.775 103.877 94.34-12.423 105.034 5.625 121.558 5.233 122.967-9.42 288.65-46.211 208.02-104.01-109.84-78.733-184.141 4.738-222.412 25.516l-38.275 20.772z"/><path fill="none" stroke="#7A51D0" stroke-linecap="round" stroke-linejoin="round" stroke-width="52.02" d="M596.204 464.007s54.049 100.18 54.127 110.261M374.517 466.74S318.053 566.918 317.971 577"/><path fill="#9C73F7" d="M467.777 385.487c-6.93 1.091-114.648 48.083-115.969 67.764-1.32 19.68 29.509 179.366 89.143 200.144 59.63 20.777 126.337 0 126.337 0s69.982-172.773 49.205-205.576c-20.777-32.808-114.816-62.332-114.816-62.332h-33.9z"/><path fill="none" stroke="#6A42C1" stroke-linecap="round" stroke-linejoin="round" stroke-width="52.02" d="M317.893 576.908c5.396 16.093 85.35 4.255 131.935-3.116M650.303 574.377c-4.836 16.27-81.904 8.224-126.817 3.064"/><path fill="#FF8E3A" d="M486.729 447.82c-14.235 0-25.883-11.65-25.883-25.883v-87.114c0-14.234 11.648-25.882 25.883-25.882 14.234 0 25.882 11.648 25.882 25.882v87.114c0 14.234-11.648 25.882-25.882 25.882zm0-138.879c-14.235 0-25.883 11.648-25.883 25.882v71.232c15.26 12.75 30.034 6.07 51.765-10.766v-60.466c0-14.234-11.648-25.882-25.882-25.882z"/><path fill="#E8741B" d="M486.729 308.941c-14.235 0-25.883 11.648-25.883 25.882v71.232c15.26 12.75 30.034 6.07 51.765-10.766v-60.466c0-14.234-11.648-25.882-25.882-25.882z"/><path fill="#FF8E3A" d="M543.532 338.342c-4.253 8.686-11.158 13.5-15.427 10.756-4.264-2.744-4.279-12.005-.026-20.685 4.254-8.686 11.16-13.5 15.428-10.756 4.269 2.744 4.279 12.005.025 20.685zM443.4 329.055c4.916 7.905 5.86 17.447 2.106 21.323-3.753 3.881-10.781.617-15.703-7.282-4.916-7.9-5.86-17.448-2.106-21.324 3.754-3.876 10.782-.617 15.703 7.283zm89.005 8.731c0 31.656-19.93 57.314-44.513 57.314-24.582 0-44.507-25.658-44.507-57.314 0-31.655 19.925-57.313 44.507-57.313 24.582 0 44.513 25.658 44.513 57.313zm-58.716-80.789c-10.631 3.224-23.734 16.269-24.62 31.342-1.524 25.919 23.798 52.089 43.605 45.21-17.294-17.305 16.486 6.707 27.618-1.666-8.787-6.362-10.077-16.321 6.223-10.116 11.285 4.296 12.782-28.607 12.1-35.227-2.345-22.792-35.096-38.595-64.926-29.543zm-10.394 60.333s24.47 1.673 34.864.556c10.388-1.117 8.38-15.978 17.09-14.3 8.716 1.678 7.043 23.128 10.394 31.844 1.565 4.072-4.44 55.464-17.865 43.323-4.165-3.767-9.516-5.247-19.982-5.261-1.271-.002 1.728 22.733 1.254 24.311-1.209 4.03 38.719-6.889 40.079-23.404 2.41-29.267 7.576-53.381 8.58-70.145 1.005-16.759-6.37-27.82-19.778-35.19-13.407-7.375-40.555-10.057-46.257-9.72-5.696.33-9.174 7.2-24.107 11.056-14.938 3.86-18.457 22.46-15.106 33.186 2.343 7.501 5.261 22.584 6.67 34.962.605 5.32 4.327 27.542 5.032 31.673 2.346 13.745 9.165 27.44 44.973 28.51 5.37.161 1.173-23.526-1.823-24.063-5.216-.935-9.741-1.108-14.504 2.873-16.553 13.837-22.246-28.067-24.263-32.997-4.355-10.659 6.706-34.925 14.75-27.214z"/><path fill="#3E3F08" d="M473.688 256.997c-10.631 3.224-23.734 16.269-24.62 31.342-1.524 25.919 23.798 52.089 43.605 45.21-17.294-17.305 16.486 6.707 27.618-1.666-8.787-6.362-10.077-16.321 6.223-10.116 11.285 4.296 12.782-28.607 12.1-35.227-2.345-22.792-35.096-38.595-64.926-29.543zm-10.394 60.333s24.47 1.673 34.864.556c10.388-1.117 8.38-15.978 17.09-14.3 8.716 1.678 7.043 23.128 10.394 31.844 1.565 4.072-4.44 55.464-17.865 43.323-4.165-3.767-9.516-5.247-19.982-5.261-1.271-.002 1.728 22.733 1.254 24.311-1.209 4.03 38.719-6.889 40.079-23.404 2.41-29.267 7.576-53.381 8.58-70.145 1.005-16.759-6.37-27.82-19.778-35.19-13.407-7.375-40.555-10.057-46.257-9.72-5.696.33-9.174 7.2-24.107 11.056-14.938 3.86-18.457 22.46-15.106 33.186 2.343 7.501 5.261 22.584 6.67 34.962.605 5.32 4.327 27.542 5.032 31.673 2.346 13.745 9.165 27.44 44.973 28.51 5.37.161 1.173-23.526-1.823-24.063-5.216-.935-9.741-1.108-14.504 2.873-16.553 13.837-22.246-28.067-24.263-32.997-4.355-10.659 6.706-34.925 14.75-27.214z"/><path fill="#3C3D00" d="M537.76 726.197s24.056-18.125 55.768-14.846c31.712 3.28 59.053 10.195 31.712 18.763-27.336 8.573-55.769 9.665-68.891 8.573-13.123-1.091-18.59-12.49-18.59-12.49zm-25.149-5.054c-1.056-.183-113.725-28.381-138.873-7.604-25.153 20.772 84.196 21.13 103.882 16.575 19.681-4.549 34.991-8.97 34.991-8.97z"/><path fill="#A0A0A0" d="M577.396 671.22H401.314a14.526 14.526 0 0 1-14.326-12.123l-21.231-126.715c-1.484-8.859 5.344-16.922 14.326-16.922h218.545c8.98 0 15.81 8.063 14.326 16.922l-21.232 126.715a14.526 14.526 0 0 1-14.326 12.122zm0 0H401.314c-7.094 0-13.153-4.937-14.326-11.685L365.757 537.39c-1.484-8.537 5.344-16.31 14.326-16.31h218.545c8.98 0 15.81 7.773 14.326 16.31l-21.232 122.145c-1.173 6.748-7.231 11.684-14.326 11.684zm-85.973-82.614c9.457-7.744 13.683 1.198 13.768 6.594.084 5.397-6.044 9.868-13.69 9.988-7.644.12-13.91-4.157-13.995-9.554-.084-5.396 4.249-13.862 13.917-7.028z"/><path fill="#C9C9C9" d="M577.396 671.22H401.314c-7.094 0-13.153-4.937-14.326-11.685L365.757 537.39c-1.484-8.537 5.344-16.31 14.326-16.31h218.545c8.98 0 15.81 7.773 14.326 16.31l-21.232 122.145c-1.173 6.748-7.231 11.684-14.326 11.684zm-85.973-82.614c9.457-7.744 13.683 1.198 13.768 6.594.084 5.397-6.044 9.868-13.69 9.988-7.644.12-13.91-4.157-13.995-9.554-.084-5.396 4.249-13.862 13.917-7.028z"/><path fill="#F9F9F9" d="M491.423 588.606c9.457-7.744 13.683 1.198 13.768 6.594.084 5.397-6.044 9.868-13.69 9.988-7.644.12-13.91-4.157-13.995-9.554-.084-5.396 4.249-13.862 13.917-7.028z"/></g></g></svg>